<?xml version="1.0" encoding="UTF-8"?>
<svg xmlns="http://www.w3.org/2000/svg" xmlns:xlink="http://www.w3.org/1999/xlink" width="50px" height="50px" viewBox="0 0 50 50" version="1.1">
<g id="surface1">
<path style=" stroke:none;fill-rule:nonzero;fill:rgb(90.980392%,33.333333%,7.058824%);fill-opacity:1;" d="M 46.574219 2.382812 C 46.296875 2.382812 46.035156 2.488281 45.839844 2.6875 L 37.851562 10.675781 L 39.324219 12.144531 L 47.3125 4.160156 C 47.507812 3.960938 47.617188 3.699219 47.617188 3.421875 C 47.617188 3.144531 47.507812 2.882812 47.3125 2.6875 C 47.113281 2.488281 46.851562 2.382812 46.574219 2.382812 Z M 46.574219 2.382812 "/>
<path style=" stroke:none;fill-rule:nonzero;fill:rgb(94.509804%,61.176471%,49.019608%);fill-opacity:1;" d="M 38.480469 19.90625 C 39.921875 18.460938 39.921875 16.113281 38.480469 14.671875 L 35.328125 11.515625 C 34.628906 10.816406 33.699219 10.433594 32.707031 10.433594 C 31.71875 10.433594 30.789062 10.816406 30.09375 11.515625 L 2.679688 38.929688 C 1.675781 39.933594 3.390625 42.566406 5.414062 44.585938 C 7.253906 46.429688 9.175781 47.617188 10.304688 47.617188 C 10.625 47.617188 10.859375 47.527344 11.066406 47.320312 Z M 38.480469 19.90625 "/>
<path style=" stroke:none;fill-rule:nonzero;fill:rgb(0%,0%,0%);fill-opacity:1;" d="M 49.996094 3.421875 C 49.996094 2.507812 49.640625 1.648438 48.996094 1.003906 C 48.347656 0.355469 47.488281 0 46.574219 0 C 45.660156 0 44.800781 0.355469 44.15625 1.003906 L 36.085938 9.074219 C 35.09375 8.410156 33.929688 8.050781 32.707031 8.050781 C 31.082031 8.050781 29.558594 8.683594 28.410156 9.832031 L 0.996094 37.246094 C 0.292969 37.949219 -0.679688 39.539062 0.707031 42.292969 C 1.550781 43.964844 2.960938 45.5 3.730469 46.269531 C 5.121094 47.660156 7.828125 50 10.304688 50 C 11.253906 50 12.097656 49.65625 12.75 49.003906 L 40.164062 21.589844 C 42.246094 19.507812 42.5 16.277344 40.921875 13.914062 L 48.996094 5.84375 C 49.640625 5.195312 49.996094 4.335938 49.996094 3.421875 Z M 10.304688 47.617188 C 9.175781 47.617188 7.253906 46.429688 5.414062 44.585938 C 3.390625 42.566406 1.675781 39.933594 2.679688 38.929688 L 30.09375 11.515625 C 30.789062 10.816406 31.71875 10.433594 32.707031 10.433594 C 33.699219 10.433594 34.628906 10.816406 35.328125 11.515625 L 38.480469 14.671875 C 39.921875 16.113281 39.921875 18.460938 38.480469 19.90625 L 11.066406 47.320312 C 10.859375 47.527344 10.625 47.617188 10.304688 47.617188 Z M 47.3125 4.160156 L 39.324219 12.144531 L 37.851562 10.675781 L 45.839844 2.6875 C 46.035156 2.488281 46.296875 2.382812 46.574219 2.382812 C 46.851562 2.382812 47.113281 2.488281 47.3125 2.6875 C 47.507812 2.882812 47.617188 3.144531 47.617188 3.421875 C 47.617188 3.699219 47.507812 3.960938 47.3125 4.160156 Z M 47.3125 4.160156 "/>
</g>
</svg>
