<?xml version="1.0" encoding="UTF-8"?>
<svg xmlns="http://www.w3.org/2000/svg" xmlns:xlink="http://www.w3.org/1999/xlink" width="50px" height="50px" viewBox="0 0 50 50" version="1.1">
<defs>
<radialGradient id="radial0" gradientUnits="userSpaceOnUse" cx="706.4189" cy="226.6997" fx="706.4189" fy="226.6997" r="180.7268" gradientTransform="matrix(0.0665625,-0.0763937,0.0763375,0.0666125,-42.49565,56.122719)">
<stop offset="0" style="stop-color:rgb(92.941176%,10.980392%,14.117647%);stop-opacity:1;"/>
<stop offset="0.182" style="stop-color:rgb(89.019608%,12.156863%,14.901961%);stop-opacity:1;"/>
<stop offset="0.6893" style="stop-color:rgb(79.215686%,14.509804%,16.862745%);stop-opacity:1;"/>
<stop offset="1" style="stop-color:rgb(75.686275%,15.294118%,17.647059%);stop-opacity:1;"/>
</radialGradient>
<filter id="alpha" filterUnits="objectBoundingBox" x="0%" y="0%" width="100%" height="100%">
  <feColorMatrix type="matrix" in="SourceGraphic" values="0 0 0 0 1 0 0 0 0 1 0 0 0 0 1 0 0 0 1 0"/>
</filter>
<mask id="mask0">
  <g filter="url(#alpha)">
<rect x="0" y="0" width="50" height="50" style="fill:rgb(0%,0%,0%);fill-opacity:0.501961;stroke:none;"/>
  </g>
</mask>
<clipPath id="clip1">
  <rect x="0" y="0" width="50" height="50"/>
</clipPath>
<g id="surface5" clip-path="url(#clip1)">
<path style="fill:none;stroke-width:1.6211;stroke-linecap:butt;stroke-linejoin:miter;stroke:rgb(0%,0%,0%);stroke-opacity:1;stroke-miterlimit:10;" d="M 536.9375 268.1875 C 527.0625 322.25 499.25 380.0625 454.75 431.125 C 408 484.8125 351.3125 521.25 296.6875 537.25 " transform="matrix(0.0625,0,0,0.0625,0,0)"/>
</g>
<mask id="mask1">
  <g filter="url(#alpha)">
<rect x="0" y="0" width="50" height="50" style="fill:rgb(0%,0%,0%);fill-opacity:0.2;stroke:none;"/>
  </g>
</mask>
<clipPath id="clip2">
  <rect x="0" y="0" width="50" height="50"/>
</clipPath>
<g id="surface8" clip-path="url(#clip2)">
<path style=" stroke:none;fill-rule:nonzero;fill:rgb(74.901961%,15.294118%,17.254902%);fill-opacity:1;" d="M 29.160156 27.613281 C 31.757812 24.628906 33.558594 21.210938 34.347656 17.8125 C 34.097656 17.449219 33.824219 17.097656 33.53125 16.761719 C 32.914062 20.140625 31.175781 23.753906 28.394531 26.945312 C 25.472656 30.300781 21.929688 32.574219 18.515625 33.578125 C 18.882812 33.835938 19.265625 34.066406 19.65625 34.273438 C 23.070312 33.082031 26.425781 30.746094 29.160156 27.613281 Z M 29.160156 27.613281 "/>
</g>
<radialGradient id="radial1" gradientUnits="userSpaceOnUse" cx="404.9688" cy="397.6191" fx="404.9688" fy="397.6191" r="83.3412" gradientTransform="matrix(0.101281,0,0,0.101356,-15.494031,-15.583737)">
<stop offset="0" style="stop-color:rgb(92.941176%,10.980392%,14.117647%);stop-opacity:1;"/>
<stop offset="0.182" style="stop-color:rgb(89.019608%,12.156863%,14.901961%);stop-opacity:1;"/>
<stop offset="0.6893" style="stop-color:rgb(79.215686%,14.509804%,16.862745%);stop-opacity:1;"/>
<stop offset="1" style="stop-color:rgb(75.686275%,15.294118%,17.647059%);stop-opacity:1;"/>
</radialGradient>
<mask id="mask2">
  <g filter="url(#alpha)">
<rect x="0" y="0" width="50" height="50" style="fill:rgb(0%,0%,0%);fill-opacity:0.501961;stroke:none;"/>
  </g>
</mask>
<clipPath id="clip3">
  <rect x="0" y="0" width="50" height="50"/>
</clipPath>
<g id="surface11" clip-path="url(#clip3)">
<path style="fill:none;stroke-width:1.6211;stroke-linecap:round;stroke-linejoin:round;stroke:rgb(81.960784%,82.745098%,83.137255%);stroke-opacity:1;stroke-miterlimit:10;" d="M 314.5 548.375 C 369.125 529.3125 422.8125 491.9375 466.5625 441.8125 C 508.125 394.0625 536.9375 339.375 549.5625 285 " transform="matrix(0.0625,0,0,0.0625,0,0)"/>
</g>
<mask id="mask3">
  <g filter="url(#alpha)">
<rect x="0" y="0" width="50" height="50" style="fill:rgb(0%,0%,0%);fill-opacity:0.501961;stroke:none;"/>
  </g>
</mask>
<clipPath id="clip4">
  <rect x="0" y="0" width="50" height="50"/>
</clipPath>
<g id="surface14" clip-path="url(#clip4)">
<path style="fill:none;stroke-width:1.6211;stroke-linecap:round;stroke-linejoin:round;stroke:rgb(81.960784%,82.745098%,83.137255%);stroke-opacity:1;stroke-miterlimit:10;" d="M 522.375 253.75 C 514.8125 310.5625 486.4375 369.625 442.125 420.5 C 395.625 473.8125 337.375 511.1875 280.25 524.6875 " transform="matrix(0.0625,0,0,0.0625,0,0)"/>
</g>
</defs>
<g id="surface1">
<path style=" stroke:none;fill-rule:nonzero;fill:rgb(74.901961%,15.294118%,17.254902%);fill-opacity:1;" d="M 32.472656 15.679688 C 37.199219 19.800781 37.6875 26.980469 33.570312 31.707031 C 29.449219 36.4375 22.277344 36.929688 17.550781 32.804688 C 12.828125 28.679688 12.335938 21.503906 16.457031 16.773438 C 20.578125 12.046875 27.746094 11.554688 32.472656 15.679688 Z M 32.472656 15.679688 "/>
<path style=" stroke:none;fill-rule:nonzero;fill:url(#radial0);" d="M 31.816406 16.234375 C 34.070312 18.203125 32.304688 22.519531 28.34375 27.066406 C 24.382812 31.613281 20.265625 34.042969 18.015625 32.078125 C 13.46875 28.113281 12.726562 21.523438 16.6875 16.976562 C 20.652344 12.429688 27.273438 12.269531 31.816406 16.234375 Z M 31.816406 16.234375 "/>
<use xlink:href="#surface5" mask="url(#mask0)"/>
<use xlink:href="#surface8" mask="url(#mask1)"/>
<path style=" stroke:none;fill-rule:nonzero;fill:url(#radial1);" d="M 18.515625 33.578125 C 21.929688 32.574219 25.472656 30.300781 28.394531 26.945312 C 31.175781 23.753906 32.914062 20.140625 33.53125 16.761719 C 33.253906 16.445312 32.960938 16.144531 32.648438 15.859375 C 32.175781 19.410156 30.402344 23.101562 27.632812 26.28125 C 24.726562 29.613281 21.085938 31.949219 17.515625 32.792969 C 17.515625 32.796875 17.519531 32.800781 17.523438 32.804688 C 17.84375 33.082031 18.175781 33.339844 18.515625 33.578125 Z M 18.515625 33.578125 "/>
<use xlink:href="#surface11" mask="url(#mask2)"/>
<use xlink:href="#surface14" mask="url(#mask3)"/>
<path style="fill:none;stroke-width:1.6211;stroke-linecap:round;stroke-linejoin:round;stroke:rgb(100%,100%,100%);stroke-opacity:1;stroke-miterlimit:4;" d="M 314.5 548.375 C 315.25 548.125 316 547.875 316.75 547.5625 " transform="matrix(0.0625,0,0,0.0625,0,0)"/>
<path style="fill:none;stroke-width:1.6211;stroke-linecap:round;stroke-linejoin:round;stroke:rgb(100%,100%,100%);stroke-opacity:1;stroke-dasharray:4.9148,6.553;stroke-miterlimit:4;" d="M 322.9375 545.3125 C 374.625 525.4375 425.0625 489.375 466.5625 441.8125 C 506.6875 395.6875 534.9375 343.125 548.1875 290.5 " transform="matrix(0.0625,0,0,0.0625,0,0)"/>
<path style="fill:none;stroke-width:1.6211;stroke-linecap:round;stroke-linejoin:round;stroke:rgb(100%,100%,100%);stroke-opacity:1;stroke-miterlimit:4;" d="M 549 287.375 C 549.1875 286.5625 549.375 285.75 549.5625 285 " transform="matrix(0.0625,0,0,0.0625,0,0)"/>
<path style="fill:none;stroke-width:1.6211;stroke-linecap:round;stroke-linejoin:round;stroke:rgb(100%,100%,100%);stroke-opacity:1;stroke-miterlimit:4;" d="M 522.375 253.75 C 522.25 254.5625 522.125 255.3125 522 256.125 " transform="matrix(0.0625,0,0,0.0625,0,0)"/>
<path style="fill:none;stroke-width:1.6211;stroke-linecap:round;stroke-linejoin:round;stroke:rgb(100%,100%,100%);stroke-opacity:1;stroke-dasharray:4.8298,6.4397;stroke-miterlimit:4;" d="M 521 262.5 C 511.875 316.5625 484.1875 372.25 442.125 420.5 C 397.125 472.125 341.125 508.75 285.6875 523.3125 " transform="matrix(0.0625,0,0,0.0625,0,0)"/>
<path style="fill:none;stroke-width:1.6211;stroke-linecap:round;stroke-linejoin:round;stroke:rgb(100%,100%,100%);stroke-opacity:1;stroke-miterlimit:4;" d="M 282.5625 524.125 C 281.8125 524.3125 281 524.5 280.25 524.6875 C 280.25 524.75 280.3125 524.8125 280.375 524.875 " transform="matrix(0.0625,0,0,0.0625,0,0)"/>
<path style="fill-rule:nonzero;fill:rgb(100%,100%,100%);fill-opacity:1;stroke-width:0.4067;stroke-linecap:butt;stroke-linejoin:miter;stroke:rgb(100%,100%,100%);stroke-opacity:1;stroke-miterlimit:10;" d="M 562.4375 317.375 C 562.0625 317.25 561.5625 314.8125 562.3125 312.25 C 562.8125 310.9375 563.1875 310.9375 563.625 311.0625 C 564.0625 311.1875 563.625 313.4375 563.5 313.8125 C 563 315.875 562.8125 317.5 562.4375 317.375 Z M 562.4375 317.375 " transform="matrix(0.0625,0,0,0.0625,0,0)"/>
<path style="fill-rule:nonzero;fill:rgb(100%,100%,100%);fill-opacity:1;stroke-width:0.4067;stroke-linecap:butt;stroke-linejoin:miter;stroke:rgb(100%,100%,100%);stroke-opacity:1;stroke-miterlimit:10;" d="M 559.1875 327 C 558.8125 326.875 558.375 324.4375 559.25 321.875 C 560.125 319.3125 560.25 317.375 560.6875 317.5 C 561.0625 317.625 561.625 319.8125 560.75 322.375 C 559.875 324.9375 559.625 327.1875 559.1875 327 Z M 559.1875 327 " transform="matrix(0.0625,0,0,0.0625,0,0)"/>
<path style="fill-rule:nonzero;fill:rgb(100%,100%,100%);fill-opacity:1;stroke-width:0.4067;stroke-linecap:butt;stroke-linejoin:miter;stroke:rgb(100%,100%,100%);stroke-opacity:1;stroke-miterlimit:10;" d="M 555.25 337.75 C 554.875 337.5625 554.5 335.125 555.4375 332.5625 C 556.375 330.0625 556.625 328.0625 557.0625 328.25 C 557.4375 328.375 557.875 330.625 556.9375 333.125 C 556 335.6875 555.6875 337.875 555.25 337.75 Z M 555.25 337.75 " transform="matrix(0.0625,0,0,0.0625,0,0)"/>
<path style="fill-rule:nonzero;fill:rgb(100%,100%,100%);fill-opacity:1;stroke-width:0.4067;stroke-linecap:butt;stroke-linejoin:miter;stroke:rgb(100%,100%,100%);stroke-opacity:1;stroke-miterlimit:10;" d="M 550.9375 348.3125 C 550.5625 348.125 550.3125 345.625 551.3125 343.1875 C 552.375 340.6875 552.625 338.6875 553.0625 338.875 C 553.4375 339 553.8125 341.25 552.8125 343.75 C 551.75 346.25 551.375 348.4375 550.9375 348.3125 Z M 550.9375 348.3125 " transform="matrix(0.0625,0,0,0.0625,0,0)"/>
<path style="fill-rule:nonzero;fill:rgb(100%,100%,100%);fill-opacity:1;stroke-width:0.4067;stroke-linecap:butt;stroke-linejoin:miter;stroke:rgb(100%,100%,100%);stroke-opacity:1;stroke-miterlimit:10;" d="M 546.375 358.6875 C 545.9375 358.5 545.75 356.0625 546.875 353.625 C 547.9375 351.125 548.3125 349.1875 548.75 349.375 C 549.125 349.5 549.375 351.75 548.3125 354.25 C 547.1875 356.6875 546.75 358.875 546.375 358.6875 Z M 546.375 358.6875 " transform="matrix(0.0625,0,0,0.0625,0,0)"/>
<path style="fill-rule:nonzero;fill:rgb(100%,100%,100%);fill-opacity:1;stroke-width:0.4067;stroke-linecap:butt;stroke-linejoin:miter;stroke:rgb(100%,100%,100%);stroke-opacity:1;stroke-miterlimit:10;" d="M 541.4375 369 C 541 368.8125 540.9375 366.3125 542.0625 363.875 C 543.25 361.5 543.6875 359.5 544.0625 359.6875 C 544.4375 359.875 544.6875 362.125 543.5 364.5625 C 542.3125 367 541.8125 369.1875 541.4375 369 Z M 541.4375 369 " transform="matrix(0.0625,0,0,0.0625,0,0)"/>
<path style="fill-rule:nonzero;fill:rgb(100%,100%,100%);fill-opacity:1;stroke-width:0.4067;stroke-linecap:butt;stroke-linejoin:miter;stroke:rgb(100%,100%,100%);stroke-opacity:1;stroke-miterlimit:10;" d="M 536.1875 379.125 C 535.8125 378.875 535.75 376.4375 537 374 C 538.25 371.625 538.75 369.6875 539.125 369.875 C 539.5 370.125 539.625 372.375 538.375 374.75 C 537.1875 377.125 536.5625 379.3125 536.1875 379.125 Z M 536.1875 379.125 " transform="matrix(0.0625,0,0,0.0625,0,0)"/>
<path style="fill-rule:nonzero;fill:rgb(100%,100%,100%);fill-opacity:1;stroke-width:0.4067;stroke-linecap:butt;stroke-linejoin:miter;stroke:rgb(100%,100%,100%);stroke-opacity:1;stroke-miterlimit:10;" d="M 530.625 389.0625 C 530.25 388.875 530.3125 386.375 531.625 384 C 532.9375 381.6875 533.4375 379.75 533.875 379.9375 C 534.25 380.1875 534.3125 382.4375 533 384.8125 C 531.6875 387.125 531 389.25 530.625 389.0625 Z M 530.625 389.0625 " transform="matrix(0.0625,0,0,0.0625,0,0)"/>
<path style="fill-rule:nonzero;fill:rgb(100%,100%,100%);fill-opacity:1;stroke-width:0.4067;stroke-linecap:butt;stroke-linejoin:miter;stroke:rgb(100%,100%,100%);stroke-opacity:1;stroke-miterlimit:10;" d="M 524.8125 398.875 C 524.4375 398.625 524.5625 396.1875 525.9375 393.875 C 527.3125 391.5625 527.9375 389.625 528.3125 389.875 C 528.6875 390.0625 528.6875 392.3125 527.3125 394.6875 C 525.9375 397 525.1875 399.0625 524.8125 398.875 Z M 524.8125 398.875 " transform="matrix(0.0625,0,0,0.0625,0,0)"/>
<path style="fill-rule:nonzero;fill:rgb(100%,100%,100%);fill-opacity:1;stroke-width:0.4067;stroke-linecap:butt;stroke-linejoin:miter;stroke:rgb(100%,100%,100%);stroke-opacity:1;stroke-miterlimit:10;" d="M 518.75 408.5 C 518.375 408.25 518.5625 405.8125 520 403.5 C 521.4375 401.25 522.0625 399.375 522.4375 399.625 C 522.8125 399.8125 522.8125 402.0625 521.3125 404.375 C 519.875 406.625 519.125 408.75 518.75 408.5 Z M 518.75 408.5 " transform="matrix(0.0625,0,0,0.0625,0,0)"/>
<path style="fill-rule:nonzero;fill:rgb(100%,100%,100%);fill-opacity:1;stroke-width:0.4067;stroke-linecap:butt;stroke-linejoin:miter;stroke:rgb(100%,100%,100%);stroke-opacity:1;stroke-miterlimit:10;" d="M 512.375 418 C 512.0625 417.75 512.3125 415.25 513.8125 413 C 515.3125 410.8125 516 408.9375 516.375 409.1875 C 516.6875 409.4375 516.625 411.6875 515.125 413.875 C 513.625 416.125 512.75 418.1875 512.375 418 Z M 512.375 418 " transform="matrix(0.0625,0,0,0.0625,0,0)"/>
<path style="fill-rule:nonzero;fill:rgb(100%,100%,100%);fill-opacity:1;stroke-width:0.4067;stroke-linecap:butt;stroke-linejoin:miter;stroke:rgb(100%,100%,100%);stroke-opacity:1;stroke-miterlimit:10;" d="M 505.8125 427.25 C 505.4375 427 505.75 424.5625 507.3125 422.375 C 508.875 420.1875 509.625 418.3125 510 418.5625 C 510.3125 418.8125 510.1875 421.0625 508.625 423.25 C 507.0625 425.5 506.125 427.5 505.8125 427.25 Z M 505.8125 427.25 " transform="matrix(0.0625,0,0,0.0625,0,0)"/>
<path style="fill-rule:nonzero;fill:rgb(100%,100%,100%);fill-opacity:1;stroke-width:0.4067;stroke-linecap:butt;stroke-linejoin:miter;stroke:rgb(100%,100%,100%);stroke-opacity:1;stroke-miterlimit:10;" d="M 498.9375 436.375 C 498.625 436.125 499 433.6875 500.625 431.5 C 502.25 429.375 503 427.5625 503.375 427.8125 C 503.6875 428.0625 503.5 430.3125 501.875 432.4375 C 500.25 434.625 499.3125 436.625 498.9375 436.375 Z M 498.9375 436.375 " transform="matrix(0.0625,0,0,0.0625,0,0)"/>
<path style="fill-rule:nonzero;fill:rgb(100%,100%,100%);fill-opacity:1;stroke-width:0.4067;stroke-linecap:butt;stroke-linejoin:miter;stroke:rgb(100%,100%,100%);stroke-opacity:1;stroke-miterlimit:10;" d="M 491.875 445.3125 C 491.5 445 492 442.5625 493.625 440.5 C 495.3125 438.375 496.1875 436.5625 496.5 436.875 C 496.8125 437.125 496.5625 439.375 494.875 441.4375 C 493.1875 443.5625 492.1875 445.5625 491.875 445.3125 Z M 491.875 445.3125 " transform="matrix(0.0625,0,0,0.0625,0,0)"/>
<path style="fill-rule:nonzero;fill:rgb(100%,100%,100%);fill-opacity:1;stroke-width:0.4067;stroke-linecap:butt;stroke-linejoin:miter;stroke:rgb(100%,100%,100%);stroke-opacity:1;stroke-miterlimit:10;" d="M 484.5625 454.0625 C 484.1875 453.75 484.75 451.3125 486.4375 449.25 C 488.1875 447.25 489.0625 445.4375 489.4375 445.6875 C 489.75 446 489.375 448.25 487.625 450.3125 C 485.9375 452.375 484.875 454.3125 484.5625 454.0625 Z M 484.5625 454.0625 " transform="matrix(0.0625,0,0,0.0625,0,0)"/>
<path style="fill-rule:nonzero;fill:rgb(100%,100%,100%);fill-opacity:1;stroke-width:0.4067;stroke-linecap:butt;stroke-linejoin:miter;stroke:rgb(100%,100%,100%);stroke-opacity:1;stroke-miterlimit:10;" d="M 477 462.5625 C 476.6875 462.3125 477.25 459.875 479.0625 457.875 C 480.8125 455.875 481.75 454.0625 482.0625 454.375 C 482.375 454.6875 482 456.875 480.1875 458.9375 C 478.4375 460.9375 477.3125 462.875 477 462.5625 Z M 477 462.5625 " transform="matrix(0.0625,0,0,0.0625,0,0)"/>
<path style="fill-rule:nonzero;fill:rgb(100%,100%,100%);fill-opacity:1;stroke-width:0.4067;stroke-linecap:butt;stroke-linejoin:miter;stroke:rgb(100%,100%,100%);stroke-opacity:1;stroke-miterlimit:10;" d="M 469.25 470.9375 C 468.875 470.625 469.5625 468.25 471.375 466.25 C 473.25 464.3125 474.1875 462.5625 474.5 462.875 C 474.8125 463.125 474.375 465.375 472.5625 467.3125 C 470.6875 469.3125 469.5625 471.1875 469.25 470.9375 Z M 469.25 470.9375 " transform="matrix(0.0625,0,0,0.0625,0,0)"/>
<path style="fill-rule:nonzero;fill:rgb(100%,100%,100%);fill-opacity:1;stroke-width:0.4067;stroke-linecap:butt;stroke-linejoin:miter;stroke:rgb(100%,100%,100%);stroke-opacity:1;stroke-miterlimit:10;" d="M 461.25 479.0625 C 460.9375 478.75 461.625 476.375 463.5 474.4375 C 465.4375 472.5625 466.4375 470.8125 466.75 471.125 C 467.0625 471.4375 466.5 473.625 464.625 475.5625 C 462.75 477.5 461.5 479.375 461.25 479.0625 Z M 461.25 479.0625 " transform="matrix(0.0625,0,0,0.0625,0,0)"/>
<path style="fill-rule:nonzero;fill:rgb(100%,100%,100%);fill-opacity:1;stroke-width:0.4067;stroke-linecap:butt;stroke-linejoin:miter;stroke:rgb(100%,100%,100%);stroke-opacity:1;stroke-miterlimit:10;" d="M 453 486.9375 C 452.6875 486.625 453.5 484.25 455.4375 482.4375 C 457.375 480.5625 458.4375 478.875 458.75 479.1875 C 459.0625 479.5 458.4375 481.6875 456.5 483.5625 C 454.5625 485.4375 453.3125 487.25 453 486.9375 Z M 453 486.9375 " transform="matrix(0.0625,0,0,0.0625,0,0)"/>
<path style="fill-rule:nonzero;fill:rgb(100%,100%,100%);fill-opacity:1;stroke-width:0.4067;stroke-linecap:butt;stroke-linejoin:miter;stroke:rgb(100%,100%,100%);stroke-opacity:1;stroke-miterlimit:10;" d="M 444.5625 494.625 C 444.3125 494.3125 445.125 491.9375 447.125 490.1875 C 449.125 488.375 450.25 486.6875 450.5 487 C 450.8125 487.3125 450.1875 489.5 448.1875 491.3125 C 446.1875 493.125 444.875 494.9375 444.5625 494.625 Z M 444.5625 494.625 " transform="matrix(0.0625,0,0,0.0625,0,0)"/>
<path style="fill-rule:nonzero;fill:rgb(100%,100%,100%);fill-opacity:1;stroke-width:0.4067;stroke-linecap:butt;stroke-linejoin:miter;stroke:rgb(100%,100%,100%);stroke-opacity:1;stroke-miterlimit:10;" d="M 435.9375 502.0625 C 435.6875 501.75 436.5625 499.4375 438.625 497.6875 C 440.625 495.9375 441.8125 494.3125 442.125 494.625 C 442.375 494.9375 441.6875 497.125 439.625 498.875 C 437.5625 500.625 436.25 502.375 435.9375 502.0625 Z M 435.9375 502.0625 " transform="matrix(0.0625,0,0,0.0625,0,0)"/>
<path style="fill-rule:nonzero;fill:rgb(100%,100%,100%);fill-opacity:1;stroke-width:0.4067;stroke-linecap:butt;stroke-linejoin:miter;stroke:rgb(100%,100%,100%);stroke-opacity:1;stroke-miterlimit:10;" d="M 427.125 509.25 C 426.875 508.9375 427.8125 506.625 429.875 504.9375 C 432 503.25 433.1875 501.6875 433.5 502 C 433.75 502.375 433 504.5 430.875 506.1875 C 428.8125 507.875 427.375 509.625 427.125 509.25 Z M 427.125 509.25 " transform="matrix(0.0625,0,0,0.0625,0,0)"/>
<path style="fill-rule:nonzero;fill:rgb(100%,100%,100%);fill-opacity:1;stroke-width:0.4067;stroke-linecap:butt;stroke-linejoin:miter;stroke:rgb(100%,100%,100%);stroke-opacity:1;stroke-miterlimit:10;" d="M 418.125 516.25 C 417.8125 515.875 418.875 513.625 421 512 C 423.125 510.375 424.375 508.8125 424.625 509.125 C 424.875 509.5 424.0625 511.625 421.9375 513.25 C 419.8125 514.875 418.375 516.5625 418.125 516.25 Z M 418.125 516.25 " transform="matrix(0.0625,0,0,0.0625,0,0)"/>
<path style="fill-rule:nonzero;fill:rgb(100%,100%,100%);fill-opacity:1;stroke-width:0.4067;stroke-linecap:butt;stroke-linejoin:miter;stroke:rgb(100%,100%,100%);stroke-opacity:1;stroke-miterlimit:10;" d="M 408.875 522.9375 C 408.625 522.5625 409.75 520.375 411.875 518.8125 C 414.0625 517.1875 415.375 515.6875 415.625 516.0625 C 415.875 516.375 415 518.5 412.8125 520.0625 C 410.625 521.625 409.125 523.3125 408.875 522.9375 Z M 408.875 522.9375 " transform="matrix(0.0625,0,0,0.0625,0,0)"/>
<path style="fill-rule:nonzero;fill:rgb(100%,100%,100%);fill-opacity:1;stroke-width:0.4067;stroke-linecap:butt;stroke-linejoin:miter;stroke:rgb(100%,100%,100%);stroke-opacity:1;stroke-miterlimit:10;" d="M 399.5 529.375 C 399.25 529 400.375 526.8125 402.625 525.3125 C 404.8125 523.8125 406.1875 522.3125 406.4375 522.6875 C 406.625 523.0625 405.75 525.125 403.5 526.625 C 401.25 528.125 399.6875 529.75 399.5 529.375 Z M 399.5 529.375 " transform="matrix(0.0625,0,0,0.0625,0,0)"/>
<path style="fill-rule:nonzero;fill:rgb(100%,100%,100%);fill-opacity:1;stroke-width:0.4067;stroke-linecap:butt;stroke-linejoin:miter;stroke:rgb(100%,100%,100%);stroke-opacity:1;stroke-miterlimit:10;" d="M 389.875 535.5625 C 389.625 535.1875 390.875 533 393.125 531.5625 C 395.375 530.125 396.75 528.6875 397 529.0625 C 397.25 529.4375 396.25 531.4375 394 532.875 C 391.6875 534.375 390.125 535.9375 389.875 535.5625 Z M 389.875 535.5625 " transform="matrix(0.0625,0,0,0.0625,0,0)"/>
<path style="fill-rule:nonzero;fill:rgb(100%,100%,100%);fill-opacity:1;stroke-width:0.4067;stroke-linecap:butt;stroke-linejoin:miter;stroke:rgb(100%,100%,100%);stroke-opacity:1;stroke-miterlimit:10;" d="M 380.125 541.4375 C 379.875 541.0625 381.1875 538.9375 383.5 537.5625 C 385.8125 536.1875 387.1875 534.75 387.4375 535.125 C 387.625 535.5 386.625 537.5 384.25 538.875 C 381.9375 540.25 380.3125 541.8125 380.125 541.4375 Z M 380.125 541.4375 " transform="matrix(0.0625,0,0,0.0625,0,0)"/>
<path style="fill-rule:nonzero;fill:rgb(100%,100%,100%);fill-opacity:1;stroke-width:0.4067;stroke-linecap:butt;stroke-linejoin:miter;stroke:rgb(100%,100%,100%);stroke-opacity:1;stroke-miterlimit:10;" d="M 370.125 547 C 369.9375 546.625 371.3125 544.5 373.625 543.1875 C 376 541.875 377.4375 540.5625 377.6875 540.9375 C 377.875 541.3125 376.75 543.25 374.4375 544.5625 C 372.0625 545.875 370.375 547.375 370.125 547 Z M 370.125 547 " transform="matrix(0.0625,0,0,0.0625,0,0)"/>
<path style="fill-rule:nonzero;fill:rgb(100%,100%,100%);fill-opacity:1;stroke-width:0.4067;stroke-linecap:butt;stroke-linejoin:miter;stroke:rgb(100%,100%,100%);stroke-opacity:1;stroke-miterlimit:10;" d="M 360.0625 552.25 C 359.8125 551.8125 361.25 549.8125 363.625 548.5625 C 366 547.3125 367.5625 546 367.75 546.4375 C 367.9375 546.8125 366.75 548.75 364.375 550 C 361.9375 551.1875 360.25 552.625 360.0625 552.25 Z M 360.0625 552.25 " transform="matrix(0.0625,0,0,0.0625,0,0)"/>
<path style="fill-rule:nonzero;fill:rgb(100%,100%,100%);fill-opacity:1;stroke-width:0.4067;stroke-linecap:butt;stroke-linejoin:miter;stroke:rgb(100%,100%,100%);stroke-opacity:1;stroke-miterlimit:10;" d="M 349.75 557.125 C 349.5625 556.75 351.0625 554.75 353.4375 553.625 C 355.875 552.4375 357.4375 551.1875 357.625 551.5625 C 357.8125 552 356.5625 553.875 354.125 555 C 351.6875 556.1875 349.9375 557.5 349.75 557.125 Z M 349.75 557.125 " transform="matrix(0.0625,0,0,0.0625,0,0)"/>
<path style="fill-rule:nonzero;fill:rgb(100%,100%,100%);fill-opacity:1;stroke-width:0.4067;stroke-linecap:butt;stroke-linejoin:miter;stroke:rgb(100%,100%,100%);stroke-opacity:1;stroke-miterlimit:10;" d="M 344.125 557.8125 C 346.625 556.75 348.1875 555.5625 348.375 555.9375 C 348.5625 556.375 347.25 558.1875 344.75 559.25 C 342.3125 560.3125 341.6875 558.875 344.125 557.8125 Z M 344.125 557.8125 " transform="matrix(0.0625,0,0,0.0625,0,0)"/>
<path style="fill-rule:nonzero;fill:rgb(100%,100%,100%);fill-opacity:1;stroke-width:0.4067;stroke-linecap:butt;stroke-linejoin:miter;stroke:rgb(100%,100%,100%);stroke-opacity:1;stroke-miterlimit:10;" d="M 557.0625 307.1875 C 556.6875 307.0625 556.125 304.625 556.8125 302.0625 C 557.0625 301.3125 557.625 300.6875 558 300.8125 C 558.4375 300.9375 558.6875 300.875 558.375 302.4375 C 557.625 305.0625 557.5 307.3125 557.0625 307.1875 Z M 557.0625 307.1875 " transform="matrix(0.0625,0,0,0.0625,0,0)"/>
<path style="fill-rule:nonzero;fill:rgb(100%,100%,100%);fill-opacity:1;stroke-width:0.4067;stroke-linecap:butt;stroke-linejoin:miter;stroke:rgb(100%,100%,100%);stroke-opacity:1;stroke-miterlimit:10;" d="M 554.125 316.8125 C 553.6875 316.6875 553.25 314.25 554 311.6875 C 554.8125 309.125 554.9375 307.125 555.3125 307.25 C 555.75 307.375 556.3125 309.5625 555.5 312.1875 C 554.75 314.75 554.5 316.9375 554.125 316.8125 Z M 554.125 316.8125 " transform="matrix(0.0625,0,0,0.0625,0,0)"/>
<path style="fill-rule:nonzero;fill:rgb(100%,100%,100%);fill-opacity:1;stroke-width:0.4067;stroke-linecap:butt;stroke-linejoin:miter;stroke:rgb(100%,100%,100%);stroke-opacity:1;stroke-miterlimit:10;" d="M 550.4375 327.5625 C 550 327.375 549.625 324.9375 550.5 322.4375 C 551.375 319.875 551.5625 317.875 552 318 C 552.375 318.125 552.875 320.375 552 322.9375 C 551.125 325.5 550.8125 327.6875 550.4375 327.5625 Z M 550.4375 327.5625 " transform="matrix(0.0625,0,0,0.0625,0,0)"/>
<path style="fill-rule:nonzero;fill:rgb(100%,100%,100%);fill-opacity:1;stroke-width:0.4067;stroke-linecap:butt;stroke-linejoin:miter;stroke:rgb(100%,100%,100%);stroke-opacity:1;stroke-miterlimit:10;" d="M 546.375 338.125 C 546 337.9375 545.6875 335.5 546.6875 333 C 547.625 330.5 547.875 328.5 548.25 328.625 C 548.6875 328.8125 549.0625 331 548.125 333.5625 C 547.1875 336.0625 546.8125 338.25 546.375 338.125 Z M 546.375 338.125 " transform="matrix(0.0625,0,0,0.0625,0,0)"/>
<path style="fill-rule:nonzero;fill:rgb(100%,100%,100%);fill-opacity:1;stroke-width:0.4067;stroke-linecap:butt;stroke-linejoin:miter;stroke:rgb(100%,100%,100%);stroke-opacity:1;stroke-miterlimit:10;" d="M 542.0625 348.5625 C 541.625 348.375 541.4375 345.9375 542.4375 343.4375 C 543.5 340.9375 543.8125 339 544.25 339.1875 C 544.625 339.3125 544.9375 341.5625 543.9375 344.0625 C 542.875 346.5625 542.4375 348.75 542.0625 348.5625 Z M 542.0625 348.5625 " transform="matrix(0.0625,0,0,0.0625,0,0)"/>
<path style="fill-rule:nonzero;fill:rgb(100%,100%,100%);fill-opacity:1;stroke-width:0.4067;stroke-linecap:butt;stroke-linejoin:miter;stroke:rgb(100%,100%,100%);stroke-opacity:1;stroke-miterlimit:10;" d="M 537.375 358.875 C 536.9375 358.6875 536.8125 356.1875 537.9375 353.75 C 539.0625 351.3125 539.4375 349.375 539.8125 349.5 C 540.25 349.6875 540.5 351.9375 539.375 354.4375 C 538.25 356.875 537.75 359.0625 537.375 358.875 Z M 537.375 358.875 " transform="matrix(0.0625,0,0,0.0625,0,0)"/>
<path style="fill-rule:nonzero;fill:rgb(100%,100%,100%);fill-opacity:1;stroke-width:0.4067;stroke-linecap:butt;stroke-linejoin:miter;stroke:rgb(100%,100%,100%);stroke-opacity:1;stroke-miterlimit:10;" d="M 532.375 369 C 531.9375 368.8125 531.875 366.3125 533.0625 363.9375 C 534.3125 361.5 534.6875 359.5625 535.125 359.75 C 535.5 359.9375 535.6875 362.1875 534.5 364.625 C 533.3125 367 532.75 369.1875 532.375 369 Z M 532.375 369 " transform="matrix(0.0625,0,0,0.0625,0,0)"/>
<path style="fill-rule:nonzero;fill:rgb(100%,100%,100%);fill-opacity:1;stroke-width:0.4067;stroke-linecap:butt;stroke-linejoin:miter;stroke:rgb(100%,100%,100%);stroke-opacity:1;stroke-miterlimit:10;" d="M 527.0625 379 C 526.6875 378.75 526.6875 376.3125 527.9375 373.9375 C 529.1875 371.5625 529.6875 369.625 530.0625 369.8125 C 530.4375 370 530.5625 372.25 529.3125 374.6875 C 528.0625 377.0625 527.4375 379.1875 527.0625 379 Z M 527.0625 379 " transform="matrix(0.0625,0,0,0.0625,0,0)"/>
<path style="fill-rule:nonzero;fill:rgb(100%,100%,100%);fill-opacity:1;stroke-width:0.4067;stroke-linecap:butt;stroke-linejoin:miter;stroke:rgb(100%,100%,100%);stroke-opacity:1;stroke-miterlimit:10;" d="M 521.4375 388.8125 C 521.0625 388.5625 521.125 386.125 522.5 383.75 C 523.8125 381.4375 524.375 379.5 524.75 379.75 C 525.125 379.9375 525.1875 382.1875 523.8125 384.5625 C 522.5 386.875 521.8125 389 521.4375 388.8125 Z M 521.4375 388.8125 " transform="matrix(0.0625,0,0,0.0625,0,0)"/>
<path style="fill-rule:nonzero;fill:rgb(100%,100%,100%);fill-opacity:1;stroke-width:0.4067;stroke-linecap:butt;stroke-linejoin:miter;stroke:rgb(100%,100%,100%);stroke-opacity:1;stroke-miterlimit:10;" d="M 515.5625 398.4375 C 515.1875 398.25 515.375 395.75 516.75 393.5 C 518.125 391.1875 518.75 389.25 519.125 389.5 C 519.5 389.75 519.5 392 518.0625 394.3125 C 516.6875 396.5625 515.9375 398.6875 515.5625 398.4375 Z M 515.5625 398.4375 " transform="matrix(0.0625,0,0,0.0625,0,0)"/>
<path style="fill-rule:nonzero;fill:rgb(100%,100%,100%);fill-opacity:1;stroke-width:0.4067;stroke-linecap:butt;stroke-linejoin:miter;stroke:rgb(100%,100%,100%);stroke-opacity:1;stroke-miterlimit:10;" d="M 509.4375 407.9375 C 509.0625 407.75 509.25 405.25 510.75 403 C 512.1875 400.75 512.875 398.875 513.25 399.125 C 513.625 399.3125 513.5625 401.5625 512.0625 403.875 C 510.5625 406.125 509.75 408.1875 509.4375 407.9375 Z M 509.4375 407.9375 " transform="matrix(0.0625,0,0,0.0625,0,0)"/>
<path style="fill-rule:nonzero;fill:rgb(100%,100%,100%);fill-opacity:1;stroke-width:0.4067;stroke-linecap:butt;stroke-linejoin:miter;stroke:rgb(100%,100%,100%);stroke-opacity:1;stroke-miterlimit:10;" d="M 503 417.25 C 502.625 417 502.9375 414.5625 504.4375 412.375 C 506 410.125 506.6875 408.25 507.0625 408.5 C 507.4375 408.75 507.3125 411 505.75 413.25 C 504.25 415.5 503.375 417.5 503 417.25 Z M 503 417.25 " transform="matrix(0.0625,0,0,0.0625,0,0)"/>
<path style="fill-rule:nonzero;fill:rgb(100%,100%,100%);fill-opacity:1;stroke-width:0.4067;stroke-linecap:butt;stroke-linejoin:miter;stroke:rgb(100%,100%,100%);stroke-opacity:1;stroke-miterlimit:10;" d="M 496.375 426.4375 C 496 426.1875 496.375 423.6875 497.9375 421.5625 C 499.5 419.375 500.3125 417.5 500.625 417.75 C 501 418.0625 500.8125 420.3125 499.1875 422.4375 C 497.625 424.625 496.6875 426.6875 496.375 426.4375 Z M 496.375 426.4375 " transform="matrix(0.0625,0,0,0.0625,0,0)"/>
<path style="fill-rule:nonzero;fill:rgb(100%,100%,100%);fill-opacity:1;stroke-width:0.4067;stroke-linecap:butt;stroke-linejoin:miter;stroke:rgb(100%,100%,100%);stroke-opacity:1;stroke-miterlimit:10;" d="M 489.4375 435.375 C 489.125 435.125 489.5 432.6875 491.1875 430.5625 C 492.8125 428.4375 493.625 426.5625 493.9375 426.875 C 494.3125 427.125 494.0625 429.375 492.375 431.5 C 490.75 433.625 489.75 435.625 489.4375 435.375 Z M 489.4375 435.375 " transform="matrix(0.0625,0,0,0.0625,0,0)"/>
<path style="fill-rule:nonzero;fill:rgb(100%,100%,100%);fill-opacity:1;stroke-width:0.4067;stroke-linecap:butt;stroke-linejoin:miter;stroke:rgb(100%,100%,100%);stroke-opacity:1;stroke-miterlimit:10;" d="M 482.3125 444.125 C 481.9375 443.875 482.4375 441.4375 484.125 439.375 C 485.875 437.3125 486.6875 435.5 487.0625 435.75 C 487.375 436 487.0625 438.25 485.375 440.375 C 483.625 442.4375 482.625 444.4375 482.3125 444.125 Z M 482.3125 444.125 " transform="matrix(0.0625,0,0,0.0625,0,0)"/>
<path style="fill-rule:nonzero;fill:rgb(100%,100%,100%);fill-opacity:1;stroke-width:0.4067;stroke-linecap:butt;stroke-linejoin:miter;stroke:rgb(100%,100%,100%);stroke-opacity:1;stroke-miterlimit:10;" d="M 474.9375 452.75 C 474.625 452.4375 475.125 450 476.875 448 C 478.625 445.9375 479.5625 444.1875 479.875 444.4375 C 480.25 444.75 479.875 447 478.0625 449 C 476.3125 451.0625 475.25 453 474.9375 452.75 Z M 474.9375 452.75 " transform="matrix(0.0625,0,0,0.0625,0,0)"/>
<path style="fill-rule:nonzero;fill:rgb(100%,100%,100%);fill-opacity:1;stroke-width:0.4067;stroke-linecap:butt;stroke-linejoin:miter;stroke:rgb(100%,100%,100%);stroke-opacity:1;stroke-miterlimit:10;" d="M 467.3125 461.125 C 467 460.8125 467.625 458.4375 469.4375 456.4375 C 471.25 454.4375 472.1875 452.6875 472.5 453 C 472.8125 453.25 472.4375 455.5 470.5625 457.5 C 468.75 459.5 467.625 461.4375 467.3125 461.125 Z M 467.3125 461.125 " transform="matrix(0.0625,0,0,0.0625,0,0)"/>
<path style="fill-rule:nonzero;fill:rgb(100%,100%,100%);fill-opacity:1;stroke-width:0.4067;stroke-linecap:butt;stroke-linejoin:miter;stroke:rgb(100%,100%,100%);stroke-opacity:1;stroke-miterlimit:10;" d="M 459.5 469.3125 C 459.1875 469 459.875 466.625 461.75 464.6875 C 463.625 462.75 464.625 461 464.9375 461.3125 C 465.25 461.625 464.75 463.8125 462.875 465.75 C 461 467.6875 459.8125 469.625 459.5 469.3125 Z M 459.5 469.3125 " transform="matrix(0.0625,0,0,0.0625,0,0)"/>
<path style="fill-rule:nonzero;fill:rgb(100%,100%,100%);fill-opacity:1;stroke-width:0.4067;stroke-linecap:butt;stroke-linejoin:miter;stroke:rgb(100%,100%,100%);stroke-opacity:1;stroke-miterlimit:10;" d="M 451.5 477.25 C 451.1875 476.9375 451.9375 474.5625 453.8125 472.6875 C 455.75 470.8125 456.8125 469.125 457.125 469.4375 C 457.375 469.75 456.875 471.9375 454.9375 473.8125 C 453 475.6875 451.75 477.5625 451.5 477.25 Z M 451.5 477.25 " transform="matrix(0.0625,0,0,0.0625,0,0)"/>
<path style="fill-rule:nonzero;fill:rgb(100%,100%,100%);fill-opacity:1;stroke-width:0.4067;stroke-linecap:butt;stroke-linejoin:miter;stroke:rgb(100%,100%,100%);stroke-opacity:1;stroke-miterlimit:10;" d="M 443.25 485 C 442.9375 484.6875 443.75 482.3125 445.6875 480.5 C 447.6875 478.6875 448.75 477 449.0625 477.3125 C 449.375 477.625 448.75 479.8125 446.75 481.625 C 444.8125 483.5 443.5 485.3125 443.25 485 Z M 443.25 485 " transform="matrix(0.0625,0,0,0.0625,0,0)"/>
<path style="fill-rule:nonzero;fill:rgb(100%,100%,100%);fill-opacity:1;stroke-width:0.4067;stroke-linecap:butt;stroke-linejoin:miter;stroke:rgb(100%,100%,100%);stroke-opacity:1;stroke-miterlimit:10;" d="M 434.75 492.5 C 434.5 492.1875 435.375 489.875 437.375 488.0625 C 439.375 486.3125 440.5 484.625 440.8125 485 C 441.0625 485.3125 440.4375 487.4375 438.375 489.25 C 436.375 491.0625 435.0625 492.8125 434.75 492.5 Z M 434.75 492.5 " transform="matrix(0.0625,0,0,0.0625,0,0)"/>
<path style="fill-rule:nonzero;fill:rgb(100%,100%,100%);fill-opacity:1;stroke-width:0.4067;stroke-linecap:butt;stroke-linejoin:miter;stroke:rgb(100%,100%,100%);stroke-opacity:1;stroke-miterlimit:10;" d="M 426.0625 499.75 C 425.8125 499.4375 426.75 497.125 428.8125 495.4375 C 430.875 493.6875 432.0625 492.0625 432.3125 492.4375 C 432.625 492.75 431.875 494.875 429.8125 496.625 C 427.75 498.375 426.375 500.125 426.0625 499.75 Z M 426.0625 499.75 " transform="matrix(0.0625,0,0,0.0625,0,0)"/>
<path style="fill-rule:nonzero;fill:rgb(100%,100%,100%);fill-opacity:1;stroke-width:0.4067;stroke-linecap:butt;stroke-linejoin:miter;stroke:rgb(100%,100%,100%);stroke-opacity:1;stroke-miterlimit:10;" d="M 417.25 506.8125 C 416.9375 506.4375 417.9375 504.1875 420.0625 502.5 C 422.1875 500.875 423.375 499.25 423.6875 499.625 C 423.9375 499.9375 423.1875 502.0625 421.0625 503.75 C 418.9375 505.4375 417.5 507.125 417.25 506.8125 Z M 417.25 506.8125 " transform="matrix(0.0625,0,0,0.0625,0,0)"/>
<path style="fill-rule:nonzero;fill:rgb(100%,100%,100%);fill-opacity:1;stroke-width:0.4067;stroke-linecap:butt;stroke-linejoin:miter;stroke:rgb(100%,100%,100%);stroke-opacity:1;stroke-miterlimit:10;" d="M 408.1875 513.5625 C 407.875 513.1875 409 511 411.125 509.375 C 413.25 507.75 414.5625 506.25 414.8125 506.5625 C 415.0625 506.9375 414.25 509 412.0625 510.625 C 409.875 512.25 408.4375 513.9375 408.1875 513.5625 Z M 408.1875 513.5625 " transform="matrix(0.0625,0,0,0.0625,0,0)"/>
<path style="fill-rule:nonzero;fill:rgb(100%,100%,100%);fill-opacity:1;stroke-width:0.4067;stroke-linecap:butt;stroke-linejoin:miter;stroke:rgb(100%,100%,100%);stroke-opacity:1;stroke-miterlimit:10;" d="M 398.875 520.0625 C 398.625 519.6875 399.8125 517.5 402 515.9375 C 404.1875 514.4375 405.5 512.9375 405.75 513.25 C 406 513.625 405.125 515.6875 402.875 517.25 C 400.6875 518.8125 399.125 520.4375 398.875 520.0625 Z M 398.875 520.0625 " transform="matrix(0.0625,0,0,0.0625,0,0)"/>
<path style="fill-rule:nonzero;fill:rgb(100%,100%,100%);fill-opacity:1;stroke-width:0.4067;stroke-linecap:butt;stroke-linejoin:miter;stroke:rgb(100%,100%,100%);stroke-opacity:1;stroke-miterlimit:10;" d="M 389.4375 526.3125 C 389.1875 525.9375 390.4375 523.75 392.625 522.25 C 394.875 520.8125 396.25 519.3125 396.5 519.6875 C 396.75 520.0625 395.75 522.125 393.5 523.5625 C 391.25 525.0625 389.6875 526.625 389.4375 526.3125 Z M 389.4375 526.3125 " transform="matrix(0.0625,0,0,0.0625,0,0)"/>
<path style="fill-rule:nonzero;fill:rgb(100%,100%,100%);fill-opacity:1;stroke-width:0.4067;stroke-linecap:butt;stroke-linejoin:miter;stroke:rgb(100%,100%,100%);stroke-opacity:1;stroke-miterlimit:10;" d="M 379.8125 532.25 C 379.625 531.875 380.875 529.6875 383.125 528.3125 C 385.4375 526.9375 386.8125 525.5 387.0625 525.875 C 387.3125 526.25 386.25 528.25 383.9375 529.625 C 381.6875 531.0625 380.0625 532.625 379.8125 532.25 Z M 379.8125 532.25 " transform="matrix(0.0625,0,0,0.0625,0,0)"/>
<path style="fill-rule:nonzero;fill:rgb(100%,100%,100%);fill-opacity:1;stroke-width:0.4067;stroke-linecap:butt;stroke-linejoin:miter;stroke:rgb(100%,100%,100%);stroke-opacity:1;stroke-miterlimit:10;" d="M 370 537.875 C 369.8125 537.5 371.125 535.375 373.4375 534.0625 C 375.8125 532.6875 377.25 531.375 377.4375 531.75 C 377.6875 532.125 376.5625 534.0625 374.25 535.4375 C 371.875 536.75 370.25 538.25 370 537.875 Z M 370 537.875 " transform="matrix(0.0625,0,0,0.0625,0,0)"/>
<path style="fill-rule:nonzero;fill:rgb(100%,100%,100%);fill-opacity:1;stroke-width:0.4067;stroke-linecap:butt;stroke-linejoin:miter;stroke:rgb(100%,100%,100%);stroke-opacity:1;stroke-miterlimit:10;" d="M 360 543.1875 C 359.8125 542.8125 361.1875 540.75 363.5625 539.5 C 365.9375 538.25 367.4375 536.875 367.6875 537.25 C 367.875 537.6875 366.6875 539.625 364.3125 540.875 C 361.9375 542.125 360.1875 543.5625 360 543.1875 Z M 360 543.1875 " transform="matrix(0.0625,0,0,0.0625,0,0)"/>
<path style="fill-rule:nonzero;fill:rgb(100%,100%,100%);fill-opacity:1;stroke-width:0.4067;stroke-linecap:butt;stroke-linejoin:miter;stroke:rgb(100%,100%,100%);stroke-opacity:1;stroke-miterlimit:10;" d="M 349.875 548.125 C 349.6875 547.75 351.125 545.75 353.5625 544.5625 C 355.9375 543.375 357.5 542.125 357.6875 542.5 C 357.875 542.875 356.6875 544.8125 354.25 546 C 351.8125 547.1875 350.0625 548.5625 349.875 548.125 Z M 349.875 548.125 " transform="matrix(0.0625,0,0,0.0625,0,0)"/>
<path style="fill-rule:nonzero;fill:rgb(100%,100%,100%);fill-opacity:1;stroke-width:0.4067;stroke-linecap:butt;stroke-linejoin:miter;stroke:rgb(100%,100%,100%);stroke-opacity:1;stroke-miterlimit:10;" d="M 339.5 552.75 C 339.375 552.375 340.875 550.4375 343.3125 549.3125 C 345.8125 548.25 347.375 547 347.5625 547.4375 C 347.75 547.8125 346.4375 549.6875 344 550.75 C 341.5 551.875 339.6875 553.1875 339.5 552.75 Z M 339.5 552.75 " transform="matrix(0.0625,0,0,0.0625,0,0)"/>
<path style="fill-rule:nonzero;fill:rgb(100%,100%,100%);fill-opacity:1;stroke-width:0.4067;stroke-linecap:butt;stroke-linejoin:miter;stroke:rgb(100%,100%,100%);stroke-opacity:1;stroke-miterlimit:10;" d="M 334 553.3125 C 336.5 552.3125 338.125 551.125 338.25 551.5625 C 338.4375 551.9375 337.0625 553.75 334.5625 554.75 C 331.125 556.1875 330.5625 554.6875 334 553.3125 Z M 334 553.3125 " transform="matrix(0.0625,0,0,0.0625,0,0)"/>
<path style="fill:none;stroke-width:1.6211;stroke-linecap:round;stroke-linejoin:round;stroke:rgb(100%,100%,100%);stroke-opacity:1;stroke-miterlimit:4;" d="M 314.5 548.375 C 315.25 548.125 316 547.875 316.75 547.5625 " transform="matrix(0.0625,0,0,0.0625,0,0)"/>
<path style="fill:none;stroke-width:1.6211;stroke-linecap:round;stroke-linejoin:round;stroke:rgb(100%,100%,100%);stroke-opacity:1;stroke-dasharray:4.9148,6.553;stroke-miterlimit:4;" d="M 322.9375 545.3125 C 374.625 525.4375 425.0625 489.375 466.5625 441.8125 C 506.6875 395.6875 534.9375 343.125 548.1875 290.5 " transform="matrix(0.0625,0,0,0.0625,0,0)"/>
<path style="fill:none;stroke-width:1.6211;stroke-linecap:round;stroke-linejoin:round;stroke:rgb(100%,100%,100%);stroke-opacity:1;stroke-miterlimit:4;" d="M 549 287.375 C 549.1875 286.5625 549.375 285.75 549.5625 285 " transform="matrix(0.0625,0,0,0.0625,0,0)"/>
<path style="fill-rule:nonzero;fill:rgb(100%,100%,100%);fill-opacity:1;stroke-width:0.4067;stroke-linecap:butt;stroke-linejoin:miter;stroke:rgb(100%,100%,100%);stroke-opacity:1;stroke-miterlimit:10;" d="M 278.8125 505.0625 C 278.9375 505.5 277.125 507.1875 274.5 507.8125 C 271.875 508.4375 268.75 509.875 268.625 509.5 C 268.5625 509.0625 271.5 506.9375 274.125 506.3125 C 276.75 505.6875 278.75 504.6875 278.8125 505.0625 Z M 278.8125 505.0625 " transform="matrix(0.0625,0,0,0.0625,0,0)"/>
<path style="fill-rule:nonzero;fill:rgb(100%,100%,100%);fill-opacity:1;stroke-width:0.4067;stroke-linecap:butt;stroke-linejoin:miter;stroke:rgb(100%,100%,100%);stroke-opacity:1;stroke-miterlimit:10;" d="M 288.375 502.25 C 288.5 502.6875 286.8125 504.4375 284.1875 505.25 C 281.5625 506 279.875 506.9375 279.75 506.5 C 279.625 506.125 281.1875 504.5 283.75 503.75 C 286.3125 502.9375 288.25 501.875 288.375 502.25 Z M 288.375 502.25 " transform="matrix(0.0625,0,0,0.0625,0,0)"/>
<path style="fill-rule:nonzero;fill:rgb(100%,100%,100%);fill-opacity:1;stroke-width:0.4067;stroke-linecap:butt;stroke-linejoin:miter;stroke:rgb(100%,100%,100%);stroke-opacity:1;stroke-miterlimit:10;" d="M 298.9375 498.625 C 299.0625 499.0625 297.4375 500.9375 294.875 501.8125 C 292.3125 502.6875 290.625 503.75 290.5 503.3125 C 290.375 502.9375 291.8125 501.1875 294.375 500.3125 C 296.875 499.4375 298.8125 498.25 298.9375 498.625 Z M 298.9375 498.625 " transform="matrix(0.0625,0,0,0.0625,0,0)"/>
<path style="fill-rule:nonzero;fill:rgb(100%,100%,100%);fill-opacity:1;stroke-width:0.4067;stroke-linecap:butt;stroke-linejoin:miter;stroke:rgb(100%,100%,100%);stroke-opacity:1;stroke-miterlimit:10;" d="M 309.3125 494.5625 C 309.4375 494.9375 307.875 496.875 305.375 497.875 C 302.875 498.875 301.25 500 301.0625 499.625 C 300.9375 499.1875 302.3125 497.4375 304.8125 496.4375 C 307.3125 495.4375 309.125 494.125 309.3125 494.5625 Z M 309.3125 494.5625 " transform="matrix(0.0625,0,0,0.0625,0,0)"/>
<path style="fill-rule:nonzero;fill:rgb(100%,100%,100%);fill-opacity:1;stroke-width:0.4067;stroke-linecap:butt;stroke-linejoin:miter;stroke:rgb(100%,100%,100%);stroke-opacity:1;stroke-miterlimit:10;" d="M 319.5 490 C 319.6875 490.375 318.1875 492.375 315.75 493.5 C 313.25 494.625 311.6875 495.8125 311.5 495.375 C 311.3125 495 312.625 493.125 315.0625 492.0625 C 317.5 490.9375 319.3125 489.625 319.5 490 Z M 319.5 490 " transform="matrix(0.0625,0,0,0.0625,0,0)"/>
<path style="fill-rule:nonzero;fill:rgb(100%,100%,100%);fill-opacity:1;stroke-width:0.4067;stroke-linecap:butt;stroke-linejoin:miter;stroke:rgb(100%,100%,100%);stroke-opacity:1;stroke-miterlimit:10;" d="M 329.5 485 C 329.6875 485.375 328.25 487.4375 325.875 488.6875 C 323.4375 489.875 321.9375 491.125 321.6875 490.75 C 321.5 490.375 322.75 488.4375 325.1875 487.25 C 327.5625 486.0625 329.25 484.625 329.5 485 Z M 329.5 485 " transform="matrix(0.0625,0,0,0.0625,0,0)"/>
<path style="fill-rule:nonzero;fill:rgb(100%,100%,100%);fill-opacity:1;stroke-width:0.4067;stroke-linecap:butt;stroke-linejoin:miter;stroke:rgb(100%,100%,100%);stroke-opacity:1;stroke-miterlimit:10;" d="M 339.25 479.625 C 339.5 480 338.1875 482.125 335.8125 483.4375 C 333.4375 484.75 331.9375 486.0625 331.75 485.6875 C 331.5 485.3125 332.6875 483.375 335.0625 482.0625 C 337.375 480.75 339.0625 479.25 339.25 479.625 Z M 339.25 479.625 " transform="matrix(0.0625,0,0,0.0625,0,0)"/>
<path style="fill-rule:nonzero;fill:rgb(100%,100%,100%);fill-opacity:1;stroke-width:0.4067;stroke-linecap:butt;stroke-linejoin:miter;stroke:rgb(100%,100%,100%);stroke-opacity:1;stroke-miterlimit:10;" d="M 348.875 473.9375 C 349.0625 474.3125 347.8125 476.4375 345.5 477.8125 C 343.1875 479.25 341.75 480.625 341.5625 480.25 C 341.3125 479.875 342.4375 477.875 344.75 476.5 C 347 475.125 348.625 473.5625 348.875 473.9375 Z M 348.875 473.9375 " transform="matrix(0.0625,0,0,0.0625,0,0)"/>
<path style="fill-rule:nonzero;fill:rgb(100%,100%,100%);fill-opacity:1;stroke-width:0.4067;stroke-linecap:butt;stroke-linejoin:miter;stroke:rgb(100%,100%,100%);stroke-opacity:1;stroke-miterlimit:10;" d="M 358.25 467.875 C 358.4375 468.1875 357.3125 470.4375 355.0625 471.875 C 352.75 473.375 351.375 474.75 351.125 474.4375 C 350.9375 474.0625 351.9375 472 354.1875 470.5625 C 356.4375 469.125 358 467.5 358.25 467.875 Z M 358.25 467.875 " transform="matrix(0.0625,0,0,0.0625,0,0)"/>
<path style="fill-rule:nonzero;fill:rgb(100%,100%,100%);fill-opacity:1;stroke-width:0.4067;stroke-linecap:butt;stroke-linejoin:miter;stroke:rgb(100%,100%,100%);stroke-opacity:1;stroke-miterlimit:10;" d="M 367.375 461.5 C 367.625 461.8125 366.5625 464.0625 364.3125 465.625 C 362.125 467.125 360.75 468.625 360.5 468.25 C 360.3125 467.9375 361.25 465.875 363.4375 464.3125 C 365.625 462.75 367.125 461.125 367.375 461.5 Z M 367.375 461.5 " transform="matrix(0.0625,0,0,0.0625,0,0)"/>
<path style="fill-rule:nonzero;fill:rgb(100%,100%,100%);fill-opacity:1;stroke-width:0.4067;stroke-linecap:butt;stroke-linejoin:miter;stroke:rgb(100%,100%,100%);stroke-opacity:1;stroke-miterlimit:10;" d="M 376.3125 454.75 C 376.5625 455.125 375.5625 457.375 373.375 459 C 371.25 460.625 369.9375 462.125 369.6875 461.8125 C 369.4375 461.4375 370.3125 459.375 372.4375 457.75 C 374.625 456.125 376.0625 454.4375 376.3125 454.75 Z M 376.3125 454.75 " transform="matrix(0.0625,0,0,0.0625,0,0)"/>
<path style="fill-rule:nonzero;fill:rgb(100%,100%,100%);fill-opacity:1;stroke-width:0.4067;stroke-linecap:butt;stroke-linejoin:miter;stroke:rgb(100%,100%,100%);stroke-opacity:1;stroke-miterlimit:10;" d="M 385 447.75 C 385.25 448.125 384.375 450.4375 382.25 452.125 C 380.125 453.8125 378.875 455.375 378.625 455 C 378.375 454.6875 379.1875 452.5625 381.25 450.875 C 383.375 449.1875 384.75 447.4375 385 447.75 Z M 385 447.75 " transform="matrix(0.0625,0,0,0.0625,0,0)"/>
<path style="fill-rule:nonzero;fill:rgb(100%,100%,100%);fill-opacity:1;stroke-width:0.4067;stroke-linecap:butt;stroke-linejoin:miter;stroke:rgb(100%,100%,100%);stroke-opacity:1;stroke-miterlimit:10;" d="M 393.5 440.5 C 393.75 440.8125 392.9375 443.1875 390.875 444.9375 C 388.8125 446.6875 387.625 448.3125 387.375 447.9375 C 387.0625 447.625 387.8125 445.5 389.8125 443.75 C 391.875 442 393.1875 440.1875 393.5 440.5 Z M 393.5 440.5 " transform="matrix(0.0625,0,0,0.0625,0,0)"/>
<path style="fill-rule:nonzero;fill:rgb(100%,100%,100%);fill-opacity:1;stroke-width:0.4067;stroke-linecap:butt;stroke-linejoin:miter;stroke:rgb(100%,100%,100%);stroke-opacity:1;stroke-miterlimit:10;" d="M 401.75 433 C 402 433.3125 401.25 435.625 399.25 437.5 C 397.25 439.3125 396.125 440.9375 395.8125 440.625 C 395.5625 440.3125 396.1875 438.125 398.1875 436.3125 C 400.1875 434.5 401.4375 432.6875 401.75 433 Z M 401.75 433 " transform="matrix(0.0625,0,0,0.0625,0,0)"/>
<path style="fill-rule:nonzero;fill:rgb(100%,100%,100%);fill-opacity:1;stroke-width:0.4067;stroke-linecap:butt;stroke-linejoin:miter;stroke:rgb(100%,100%,100%);stroke-opacity:1;stroke-miterlimit:10;" d="M 409.75 425.1875 C 410.0625 425.5 409.3125 427.875 407.375 429.75 C 405.5 431.625 404.375 433.3125 404.0625 433 C 403.75 432.6875 404.375 430.5 406.3125 428.625 C 408.25 426.75 409.4375 424.875 409.75 425.1875 Z M 409.75 425.1875 " transform="matrix(0.0625,0,0,0.0625,0,0)"/>
<path style="fill-rule:nonzero;fill:rgb(100%,100%,100%);fill-opacity:1;stroke-width:0.4067;stroke-linecap:butt;stroke-linejoin:miter;stroke:rgb(100%,100%,100%);stroke-opacity:1;stroke-miterlimit:10;" d="M 417.5 417.125 C 417.8125 417.4375 417.1875 419.8125 415.3125 421.8125 C 413.4375 423.75 412.375 425.4375 412.0625 425.125 C 411.75 424.8125 412.3125 422.625 414.1875 420.6875 C 416.0625 418.75 417.1875 416.875 417.5 417.125 Z M 417.5 417.125 " transform="matrix(0.0625,0,0,0.0625,0,0)"/>
<path style="fill-rule:nonzero;fill:rgb(100%,100%,100%);fill-opacity:1;stroke-width:0.4067;stroke-linecap:butt;stroke-linejoin:miter;stroke:rgb(100%,100%,100%);stroke-opacity:1;stroke-miterlimit:10;" d="M 425 408.875 C 425.3125 409.125 424.75 411.5625 422.9375 413.5625 C 421.125 415.5625 420.1875 417.3125 419.875 417 C 419.5 416.75 420 414.5 421.8125 412.5 C 423.5625 410.5625 424.6875 408.5625 425 408.875 Z M 425 408.875 " transform="matrix(0.0625,0,0,0.0625,0,0)"/>
<path style="fill-rule:nonzero;fill:rgb(100%,100%,100%);fill-opacity:1;stroke-width:0.4067;stroke-linecap:butt;stroke-linejoin:miter;stroke:rgb(100%,100%,100%);stroke-opacity:1;stroke-miterlimit:10;" d="M 432.25 400.375 C 432.5625 400.625 432.125 403.0625 430.375 405.125 C 428.625 407.1875 427.6875 408.9375 427.375 408.6875 C 427 408.375 427.4375 406.1875 429.125 404.125 C 430.875 402.0625 431.9375 400.0625 432.25 400.375 Z M 432.25 400.375 " transform="matrix(0.0625,0,0,0.0625,0,0)"/>
<path style="fill-rule:nonzero;fill:rgb(100%,100%,100%);fill-opacity:1;stroke-width:0.4067;stroke-linecap:butt;stroke-linejoin:miter;stroke:rgb(100%,100%,100%);stroke-opacity:1;stroke-miterlimit:10;" d="M 439.25 391.625 C 439.5625 391.9375 439.1875 394.375 437.5 396.4375 C 435.8125 398.5625 434.9375 400.375 434.5625 400.125 C 434.25 399.8125 434.5625 397.5625 436.25 395.5 C 437.9375 393.375 438.875 391.375 439.25 391.625 Z M 439.25 391.625 " transform="matrix(0.0625,0,0,0.0625,0,0)"/>
<path style="fill-rule:nonzero;fill:rgb(100%,100%,100%);fill-opacity:1;stroke-width:0.4067;stroke-linecap:butt;stroke-linejoin:miter;stroke:rgb(100%,100%,100%);stroke-opacity:1;stroke-miterlimit:10;" d="M 445.9375 382.6875 C 446.3125 383 446 385.4375 444.375 387.5625 C 442.75 389.75 441.9375 391.5625 441.5625 391.3125 C 441.25 391.0625 441.5 388.8125 443.125 386.625 C 444.6875 384.5 445.625 382.4375 445.9375 382.6875 Z M 445.9375 382.6875 " transform="matrix(0.0625,0,0,0.0625,0,0)"/>
<path style="fill-rule:nonzero;fill:rgb(100%,100%,100%);fill-opacity:1;stroke-width:0.4067;stroke-linecap:butt;stroke-linejoin:miter;stroke:rgb(100%,100%,100%);stroke-opacity:1;stroke-miterlimit:10;" d="M 452.375 373.5625 C 452.75 373.8125 452.5 376.3125 450.9375 378.5 C 449.375 380.75 448.625 382.5625 448.3125 382.3125 C 447.9375 382.0625 448.125 379.8125 449.6875 377.625 C 451.1875 375.4375 452.0625 373.3125 452.375 373.5625 Z M 452.375 373.5625 " transform="matrix(0.0625,0,0,0.0625,0,0)"/>
<path style="fill-rule:nonzero;fill:rgb(100%,100%,100%);fill-opacity:1;stroke-width:0.4067;stroke-linecap:butt;stroke-linejoin:miter;stroke:rgb(100%,100%,100%);stroke-opacity:1;stroke-miterlimit:10;" d="M 458.5625 364.25 C 458.9375 364.5 458.75 366.9375 457.25 369.25 C 455.75 371.5 455.0625 373.3125 454.6875 373.125 C 454.375 372.875 454.4375 370.625 455.9375 368.375 C 457.4375 366.125 458.1875 364 458.5625 364.25 Z M 458.5625 364.25 " transform="matrix(0.0625,0,0,0.0625,0,0)"/>
<path style="fill-rule:nonzero;fill:rgb(100%,100%,100%);fill-opacity:1;stroke-width:0.4067;stroke-linecap:butt;stroke-linejoin:miter;stroke:rgb(100%,100%,100%);stroke-opacity:1;stroke-miterlimit:10;" d="M 464.375 354.75 C 464.75 354.9375 464.6875 357.4375 463.25 359.75 C 461.875 362.0625 461.1875 363.9375 460.8125 363.6875 C 460.5 363.4375 460.5 361.1875 461.9375 358.9375 C 463.3125 356.625 464 354.5 464.375 354.75 Z M 464.375 354.75 " transform="matrix(0.0625,0,0,0.0625,0,0)"/>
<path style="fill-rule:nonzero;fill:rgb(100%,100%,100%);fill-opacity:1;stroke-width:0.4067;stroke-linecap:butt;stroke-linejoin:miter;stroke:rgb(100%,100%,100%);stroke-opacity:1;stroke-miterlimit:10;" d="M 469.9375 345 C 470.3125 345.25 470.25 347.6875 468.9375 350.0625 C 467.625 352.375 467.0625 354.3125 466.6875 354.125 C 466.3125 353.875 466.25 351.625 467.5625 349.3125 C 468.875 346.9375 469.5625 344.8125 469.9375 345 Z M 469.9375 345 " transform="matrix(0.0625,0,0,0.0625,0,0)"/>
<path style="fill-rule:nonzero;fill:rgb(100%,100%,100%);fill-opacity:1;stroke-width:0.4067;stroke-linecap:butt;stroke-linejoin:miter;stroke:rgb(100%,100%,100%);stroke-opacity:1;stroke-miterlimit:10;" d="M 475.125 335.125 C 475.5 335.3125 475.5625 337.8125 474.3125 340.1875 C 473.0625 342.5625 472.5625 344.5 472.1875 344.3125 C 471.75 344.125 471.6875 341.8125 472.9375 339.4375 C 474.125 337.0625 474.6875 334.9375 475.125 335.125 Z M 475.125 335.125 " transform="matrix(0.0625,0,0,0.0625,0,0)"/>
<path style="fill-rule:nonzero;fill:rgb(100%,100%,100%);fill-opacity:1;stroke-width:0.4067;stroke-linecap:butt;stroke-linejoin:miter;stroke:rgb(100%,100%,100%);stroke-opacity:1;stroke-miterlimit:10;" d="M 479.9375 325.0625 C 480.3125 325.25 480.5 327.6875 479.3125 330.125 C 478.125 332.5625 477.6875 334.5 477.3125 334.3125 C 476.9375 334.125 476.75 331.875 477.9375 329.4375 C 479.0625 327.0625 479.5625 324.875 479.9375 325.0625 Z M 479.9375 325.0625 " transform="matrix(0.0625,0,0,0.0625,0,0)"/>
<path style="fill-rule:nonzero;fill:rgb(100%,100%,100%);fill-opacity:1;stroke-width:0.4067;stroke-linecap:butt;stroke-linejoin:miter;stroke:rgb(100%,100%,100%);stroke-opacity:1;stroke-miterlimit:10;" d="M 484.375 314.8125 C 484.8125 314.9375 485.0625 317.4375 484 319.9375 C 482.875 322.375 482.5 324.375 482.125 324.1875 C 481.75 324 481.4375 321.75 482.5625 319.3125 C 483.625 316.8125 484 314.625 484.375 314.8125 Z M 484.375 314.8125 " transform="matrix(0.0625,0,0,0.0625,0,0)"/>
<path style="fill-rule:nonzero;fill:rgb(100%,100%,100%);fill-opacity:1;stroke-width:0.4067;stroke-linecap:butt;stroke-linejoin:miter;stroke:rgb(100%,100%,100%);stroke-opacity:1;stroke-miterlimit:10;" d="M 488.5 304.375 C 488.875 304.5625 489.25 307 488.25 309.5 C 487.25 312.0625 486.9375 314 486.5625 313.875 C 486.125 313.6875 485.8125 311.4375 486.8125 308.9375 C 487.75 306.4375 488.0625 304.25 488.5 304.375 Z M 488.5 304.375 " transform="matrix(0.0625,0,0,0.0625,0,0)"/>
<path style="fill-rule:nonzero;fill:rgb(100%,100%,100%);fill-opacity:1;stroke-width:0.4067;stroke-linecap:butt;stroke-linejoin:miter;stroke:rgb(100%,100%,100%);stroke-opacity:1;stroke-miterlimit:10;" d="M 492.125 293.8125 C 492.5625 294 493 296.4375 492.125 299 C 491.25 301.5625 491 303.5 490.625 303.375 C 490.1875 303.25 489.75 301 490.625 298.5 C 491.5 295.9375 491.75 293.6875 492.125 293.8125 Z M 492.125 293.8125 " transform="matrix(0.0625,0,0,0.0625,0,0)"/>
<path style="fill-rule:nonzero;fill:rgb(100%,100%,100%);fill-opacity:1;stroke-width:0.4067;stroke-linecap:butt;stroke-linejoin:miter;stroke:rgb(100%,100%,100%);stroke-opacity:1;stroke-miterlimit:10;" d="M 495.375 283.125 C 495.75 283.25 496.3125 285.6875 495.5625 288.3125 C 494.75 290.875 494.625 292.875 494.1875 292.75 C 493.8125 292.625 493.25 290.375 494.0625 287.8125 C 494.8125 285.25 494.9375 283 495.375 283.125 Z M 495.375 283.125 " transform="matrix(0.0625,0,0,0.0625,0,0)"/>
<path style="fill-rule:nonzero;fill:rgb(100%,100%,100%);fill-opacity:1;stroke-width:0.4067;stroke-linecap:butt;stroke-linejoin:miter;stroke:rgb(100%,100%,100%);stroke-opacity:1;stroke-miterlimit:10;" d="M 498.0625 272.3125 C 498.5 272.4375 499.1875 274.8125 498.5 277.4375 C 497.875 280.0625 497.8125 282.0625 497.375 281.9375 C 497 281.875 496.375 279.6875 497 277.0625 C 497.625 274.5 497.625 272.25 498.0625 272.3125 Z M 498.0625 272.3125 " transform="matrix(0.0625,0,0,0.0625,0,0)"/>
<path style="fill-rule:nonzero;fill:rgb(100%,100%,100%);fill-opacity:1;stroke-width:0.4067;stroke-linecap:butt;stroke-linejoin:miter;stroke:rgb(100%,100%,100%);stroke-opacity:1;stroke-miterlimit:10;" d="M 500.3125 261.375 C 500.75 261.5 501.5 263.875 500.9375 266.5 C 500.4375 269.125 500.4375 271.125 500 271.0625 C 499.625 270.9375 498.875 268.8125 499.4375 266.1875 C 499.9375 263.5625 499.9375 261.3125 500.3125 261.375 Z M 500.3125 261.375 " transform="matrix(0.0625,0,0,0.0625,0,0)"/>
<path style="fill-rule:nonzero;fill:rgb(100%,100%,100%);fill-opacity:1;stroke-width:0.4067;stroke-linecap:butt;stroke-linejoin:miter;stroke:rgb(100%,100%,100%);stroke-opacity:1;stroke-miterlimit:10;" d="M 502.375 250.375 C 502.8125 250.4375 503.5625 252.8125 503.125 255.5 C 502.625 258.125 502.6875 260.125 502.25 260.0625 C 501.875 259.9375 501.0625 257.8125 501.5625 255.1875 C 502.0625 252.5625 501.9375 250.3125 502.375 250.375 Z M 502.375 250.375 " transform="matrix(0.0625,0,0,0.0625,0,0)"/>
<path style="fill-rule:nonzero;fill:rgb(100%,100%,100%);fill-opacity:1;stroke-width:0.4067;stroke-linecap:butt;stroke-linejoin:miter;stroke:rgb(100%,100%,100%);stroke-opacity:1;stroke-miterlimit:10;" d="M 503.9375 240.4375 C 504.375 240.5 505.25 242.8125 504.8125 245.5 C 504.375 248.125 504.5 250.125 504.125 250.0625 C 503.6875 250 502.8125 247.875 503.25 245.25 C 503.6875 242.5625 503.5 240.375 503.9375 240.4375 Z M 503.9375 240.4375 " transform="matrix(0.0625,0,0,0.0625,0,0)"/>
<path style="fill-rule:nonzero;fill:rgb(100%,100%,100%);fill-opacity:1;stroke-width:0.4067;stroke-linecap:butt;stroke-linejoin:miter;stroke:rgb(100%,100%,100%);stroke-opacity:1;stroke-miterlimit:10;" d="M 280.6875 513 C 280.8125 513.375 279 515.0625 276.375 515.6875 C 271.6875 516.8125 271.375 515.3125 276 514.1875 C 278.625 513.5625 280.625 512.5625 280.6875 513 Z M 280.6875 513 " transform="matrix(0.0625,0,0,0.0625,0,0)"/>
<path style="fill-rule:nonzero;fill:rgb(100%,100%,100%);fill-opacity:1;stroke-width:0.4067;stroke-linecap:butt;stroke-linejoin:miter;stroke:rgb(100%,100%,100%);stroke-opacity:1;stroke-miterlimit:10;" d="M 290.375 510.125 C 290.5 510.5625 288.75 512.3125 286.1875 513.125 C 283.5625 513.875 281.8125 514.8125 281.75 514.375 C 281.625 513.9375 283.1875 512.3125 285.75 511.5625 C 288.3125 510.8125 290.25 509.75 290.375 510.125 Z M 290.375 510.125 " transform="matrix(0.0625,0,0,0.0625,0,0)"/>
<path style="fill-rule:nonzero;fill:rgb(100%,100%,100%);fill-opacity:1;stroke-width:0.4067;stroke-linecap:butt;stroke-linejoin:miter;stroke:rgb(100%,100%,100%);stroke-opacity:1;stroke-miterlimit:10;" d="M 301.0625 506.5 C 301.25 506.875 299.5625 508.75 297 509.625 C 294.4375 510.5 292.75 511.5625 292.625 511.125 C 292.5 510.75 294 509 296.5 508.1875 C 299.0625 507.25 300.9375 506.0625 301.0625 506.5 Z M 301.0625 506.5 " transform="matrix(0.0625,0,0,0.0625,0,0)"/>
<path style="fill-rule:nonzero;fill:rgb(100%,100%,100%);fill-opacity:1;stroke-width:0.4067;stroke-linecap:butt;stroke-linejoin:miter;stroke:rgb(100%,100%,100%);stroke-opacity:1;stroke-miterlimit:10;" d="M 311.625 502.375 C 311.75 502.75 310.1875 504.6875 307.6875 505.6875 C 305.1875 506.6875 303.5 507.8125 303.375 507.375 C 303.1875 507 304.625 505.1875 307.125 504.25 C 309.625 503.25 311.4375 501.9375 311.625 502.375 Z M 311.625 502.375 " transform="matrix(0.0625,0,0,0.0625,0,0)"/>
<path style="fill-rule:nonzero;fill:rgb(100%,100%,100%);fill-opacity:1;stroke-width:0.4067;stroke-linecap:butt;stroke-linejoin:miter;stroke:rgb(100%,100%,100%);stroke-opacity:1;stroke-miterlimit:10;" d="M 321.9375 497.75 C 322.125 498.1875 320.625 500.1875 318.1875 501.25 C 315.6875 502.375 314.125 503.5625 313.9375 503.125 C 313.75 502.75 315.0625 500.9375 317.5625 499.8125 C 320 498.75 321.75 497.375 321.9375 497.75 Z M 321.9375 497.75 " transform="matrix(0.0625,0,0,0.0625,0,0)"/>
<path style="fill-rule:nonzero;fill:rgb(100%,100%,100%);fill-opacity:1;stroke-width:0.4067;stroke-linecap:butt;stroke-linejoin:miter;stroke:rgb(100%,100%,100%);stroke-opacity:1;stroke-miterlimit:10;" d="M 332.125 492.75 C 332.3125 493.1875 330.875 495.1875 328.5 496.4375 C 326.0625 497.625 324.5 498.875 324.3125 498.5 C 324.125 498.0625 325.375 496.1875 327.75 495 C 330.1875 493.8125 331.875 492.375 332.125 492.75 Z M 332.125 492.75 " transform="matrix(0.0625,0,0,0.0625,0,0)"/>
<path style="fill-rule:nonzero;fill:rgb(100%,100%,100%);fill-opacity:1;stroke-width:0.4067;stroke-linecap:butt;stroke-linejoin:miter;stroke:rgb(100%,100%,100%);stroke-opacity:1;stroke-miterlimit:10;" d="M 342.0625 487.375 C 342.25 487.75 340.9375 489.875 338.5625 491.1875 C 336.1875 492.4375 334.6875 493.75 334.5 493.375 C 334.25 493 335.4375 491.0625 337.8125 489.8125 C 340.1875 488.5 341.8125 487 342.0625 487.375 Z M 342.0625 487.375 " transform="matrix(0.0625,0,0,0.0625,0,0)"/>
<path style="fill-rule:nonzero;fill:rgb(100%,100%,100%);fill-opacity:1;stroke-width:0.4067;stroke-linecap:butt;stroke-linejoin:miter;stroke:rgb(100%,100%,100%);stroke-opacity:1;stroke-miterlimit:10;" d="M 351.8125 481.625 C 352 482 350.75 484.125 348.4375 485.5 C 346.125 486.875 344.6875 488.25 344.4375 487.875 C 344.25 487.5 345.3125 485.5625 347.625 484.1875 C 349.9375 482.8125 351.5625 481.25 351.8125 481.625 Z M 351.8125 481.625 " transform="matrix(0.0625,0,0,0.0625,0,0)"/>
<path style="fill-rule:nonzero;fill:rgb(100%,100%,100%);fill-opacity:1;stroke-width:0.4067;stroke-linecap:butt;stroke-linejoin:miter;stroke:rgb(100%,100%,100%);stroke-opacity:1;stroke-miterlimit:10;" d="M 361.3125 475.5 C 361.5625 475.875 360.375 478.0625 358.125 479.5625 C 355.875 481 354.4375 482.4375 354.1875 482.0625 C 354 481.6875 355 479.6875 357.25 478.25 C 359.5 476.75 361.0625 475.125 361.3125 475.5 Z M 361.3125 475.5 " transform="matrix(0.0625,0,0,0.0625,0,0)"/>
<path style="fill-rule:nonzero;fill:rgb(100%,100%,100%);fill-opacity:1;stroke-width:0.4067;stroke-linecap:butt;stroke-linejoin:miter;stroke:rgb(100%,100%,100%);stroke-opacity:1;stroke-miterlimit:10;" d="M 370.625 469.125 C 370.875 469.4375 369.8125 471.6875 367.5625 473.1875 C 365.375 474.75 364 476.25 363.75 475.875 C 363.5 475.5 364.4375 473.4375 366.6875 471.9375 C 368.875 470.375 370.375 468.75 370.625 469.125 Z M 370.625 469.125 " transform="matrix(0.0625,0,0,0.0625,0,0)"/>
<path style="fill-rule:nonzero;fill:rgb(100%,100%,100%);fill-opacity:1;stroke-width:0.4067;stroke-linecap:butt;stroke-linejoin:miter;stroke:rgb(100%,100%,100%);stroke-opacity:1;stroke-miterlimit:10;" d="M 379.75 462.375 C 380 462.6875 378.9375 464.9375 376.8125 466.5625 C 374.625 468.1875 373.3125 469.6875 373.0625 469.375 C 372.8125 469 373.6875 466.9375 375.875 465.3125 C 378 463.6875 379.4375 462 379.75 462.375 Z M 379.75 462.375 " transform="matrix(0.0625,0,0,0.0625,0,0)"/>
<path style="fill-rule:nonzero;fill:rgb(100%,100%,100%);fill-opacity:1;stroke-width:0.4067;stroke-linecap:butt;stroke-linejoin:miter;stroke:rgb(100%,100%,100%);stroke-opacity:1;stroke-miterlimit:10;" d="M 388.5625 455.3125 C 388.875 455.6875 387.9375 457.9375 385.8125 459.625 C 383.6875 461.3125 382.4375 462.875 382.1875 462.5 C 381.9375 462.1875 382.75 460.0625 384.8125 458.375 C 386.9375 456.75 388.3125 455 388.5625 455.3125 Z M 388.5625 455.3125 " transform="matrix(0.0625,0,0,0.0625,0,0)"/>
<path style="fill-rule:nonzero;fill:rgb(100%,100%,100%);fill-opacity:1;stroke-width:0.4067;stroke-linecap:butt;stroke-linejoin:miter;stroke:rgb(100%,100%,100%);stroke-opacity:1;stroke-miterlimit:10;" d="M 397.25 448 C 397.5 448.3125 396.625 450.6875 394.5625 452.375 C 392.5625 454.1875 391.3125 455.75 391.0625 455.4375 C 390.75 455.0625 391.5 452.9375 393.5625 451.1875 C 395.625 449.5 396.9375 447.6875 397.25 448 Z M 397.25 448 " transform="matrix(0.0625,0,0,0.0625,0,0)"/>
<path style="fill-rule:nonzero;fill:rgb(100%,100%,100%);fill-opacity:1;stroke-width:0.4067;stroke-linecap:butt;stroke-linejoin:miter;stroke:rgb(100%,100%,100%);stroke-opacity:1;stroke-miterlimit:10;" d="M 405.625 440.4375 C 405.9375 440.75 405.125 443.0625 403.125 444.875 C 401.125 446.6875 400 448.3125 399.6875 448 C 399.4375 447.6875 400.125 445.5625 402.0625 443.75 C 404.0625 441.9375 405.375 440.125 405.625 440.4375 Z M 405.625 440.4375 " transform="matrix(0.0625,0,0,0.0625,0,0)"/>
<path style="fill-rule:nonzero;fill:rgb(100%,100%,100%);fill-opacity:1;stroke-width:0.4067;stroke-linecap:butt;stroke-linejoin:miter;stroke:rgb(100%,100%,100%);stroke-opacity:1;stroke-miterlimit:10;" d="M 413.8125 432.5625 C 414.125 432.875 413.375 435.25 411.4375 437.125 C 409.5 439 408.375 440.6875 408.125 440.375 C 407.8125 440.0625 408.4375 437.875 410.375 436 C 412.3125 434.125 413.5 432.25 413.8125 432.5625 Z M 413.8125 432.5625 " transform="matrix(0.0625,0,0,0.0625,0,0)"/>
<path style="fill-rule:nonzero;fill:rgb(100%,100%,100%);fill-opacity:1;stroke-width:0.4067;stroke-linecap:butt;stroke-linejoin:miter;stroke:rgb(100%,100%,100%);stroke-opacity:1;stroke-miterlimit:10;" d="M 421.75 424.5 C 422.0625 424.75 421.375 427.1875 419.5 429.125 C 417.625 431.0625 416.5625 432.75 416.25 432.4375 C 415.9375 432.125 416.5 429.9375 418.375 428 C 420.25 426.0625 421.4375 424.1875 421.75 424.5 Z M 421.75 424.5 " transform="matrix(0.0625,0,0,0.0625,0,0)"/>
<path style="fill-rule:nonzero;fill:rgb(100%,100%,100%);fill-opacity:1;stroke-width:0.4067;stroke-linecap:butt;stroke-linejoin:miter;stroke:rgb(100%,100%,100%);stroke-opacity:1;stroke-miterlimit:10;" d="M 429.375 416.125 C 429.6875 416.4375 429.125 418.8125 427.3125 420.8125 C 425.5 422.8125 424.5 424.5625 424.1875 424.25 C 423.875 423.9375 424.375 421.75 426.125 419.75 C 428 417.8125 429.0625 415.8125 429.375 416.125 Z M 429.375 416.125 " transform="matrix(0.0625,0,0,0.0625,0,0)"/>
<path style="fill-rule:nonzero;fill:rgb(100%,100%,100%);fill-opacity:1;stroke-width:0.4067;stroke-linecap:butt;stroke-linejoin:miter;stroke:rgb(100%,100%,100%);stroke-opacity:1;stroke-miterlimit:10;" d="M 436.8125 407.5625 C 437.125 407.8125 436.625 410.25 434.875 412.3125 C 433.125 414.375 432.1875 416.125 431.875 415.8125 C 431.5 415.5625 431.9375 413.3125 433.6875 411.3125 C 435.4375 409.25 436.5 407.25 436.8125 407.5625 Z M 436.8125 407.5625 " transform="matrix(0.0625,0,0,0.0625,0,0)"/>
<path style="fill-rule:nonzero;fill:rgb(100%,100%,100%);fill-opacity:1;stroke-width:0.4067;stroke-linecap:butt;stroke-linejoin:miter;stroke:rgb(100%,100%,100%);stroke-opacity:1;stroke-miterlimit:10;" d="M 443.9375 398.75 C 444.3125 399.0625 443.875 401.5 442.1875 403.5625 C 440.4375 405.6875 439.5625 407.5 439.25 407.1875 C 438.875 406.9375 439.25 404.6875 440.9375 402.625 C 442.625 400.5 443.625 398.5 443.9375 398.75 Z M 443.9375 398.75 " transform="matrix(0.0625,0,0,0.0625,0,0)"/>
<path style="fill-rule:nonzero;fill:rgb(100%,100%,100%);fill-opacity:1;stroke-width:0.4067;stroke-linecap:butt;stroke-linejoin:miter;stroke:rgb(100%,100%,100%);stroke-opacity:1;stroke-miterlimit:10;" d="M 450.8125 389.75 C 451.1875 390.0625 450.8125 392.5 449.1875 394.625 C 447.5625 396.8125 446.75 398.625 446.375 398.3125 C 446.0625 398.0625 446.3125 395.8125 447.9375 393.6875 C 449.5625 391.5625 450.5 389.5 450.8125 389.75 Z M 450.8125 389.75 " transform="matrix(0.0625,0,0,0.0625,0,0)"/>
<path style="fill-rule:nonzero;fill:rgb(100%,100%,100%);fill-opacity:1;stroke-width:0.4067;stroke-linecap:butt;stroke-linejoin:miter;stroke:rgb(100%,100%,100%);stroke-opacity:1;stroke-miterlimit:10;" d="M 457.4375 380.5625 C 457.8125 380.8125 457.5 383.3125 455.9375 385.5 C 454.375 387.6875 453.625 389.5 453.25 389.25 C 452.875 389 453.125 386.75 454.6875 384.5625 C 456.25 382.375 457.0625 380.3125 457.4375 380.5625 Z M 457.4375 380.5625 " transform="matrix(0.0625,0,0,0.0625,0,0)"/>
<path style="fill-rule:nonzero;fill:rgb(100%,100%,100%);fill-opacity:1;stroke-width:0.4067;stroke-linecap:butt;stroke-linejoin:miter;stroke:rgb(100%,100%,100%);stroke-opacity:1;stroke-miterlimit:10;" d="M 463.75 371.125 C 464.125 371.375 463.875 373.875 462.4375 376.125 C 460.875 378.375 460.1875 380.1875 459.8125 380 C 459.5 379.75 459.625 377.5 461.125 375.25 C 462.5625 373 463.375 370.9375 463.75 371.125 Z M 463.75 371.125 " transform="matrix(0.0625,0,0,0.0625,0,0)"/>
<path style="fill-rule:nonzero;fill:rgb(100%,100%,100%);fill-opacity:1;stroke-width:0.4067;stroke-linecap:butt;stroke-linejoin:miter;stroke:rgb(100%,100%,100%);stroke-opacity:1;stroke-miterlimit:10;" d="M 469.75 361.5625 C 470.125 361.75 470 364.25 468.5625 366.5625 C 467.125 368.8125 466.5 370.75 466.125 370.5 C 465.75 370.25 465.8125 368 467.25 365.75 C 468.6875 363.4375 469.375 361.3125 469.75 361.5625 Z M 469.75 361.5625 " transform="matrix(0.0625,0,0,0.0625,0,0)"/>
<path style="fill-rule:nonzero;fill:rgb(100%,100%,100%);fill-opacity:1;stroke-width:0.4067;stroke-linecap:butt;stroke-linejoin:miter;stroke:rgb(100%,100%,100%);stroke-opacity:1;stroke-miterlimit:10;" d="M 475.4375 351.75 C 475.8125 351.9375 475.75 354.4375 474.4375 356.8125 C 473.0625 359.125 472.5 361 472.125 360.8125 C 471.75 360.5625 471.75 358.3125 473.0625 356 C 474.4375 353.6875 475.0625 351.5625 475.4375 351.75 Z M 475.4375 351.75 " transform="matrix(0.0625,0,0,0.0625,0,0)"/>
<path style="fill-rule:nonzero;fill:rgb(100%,100%,100%);fill-opacity:1;stroke-width:0.4067;stroke-linecap:butt;stroke-linejoin:miter;stroke:rgb(100%,100%,100%);stroke-opacity:1;stroke-miterlimit:10;" d="M 480.8125 341.75 C 481.1875 342 481.25 344.4375 479.9375 346.8125 C 478.6875 349.25 478.125 351.125 477.75 350.9375 C 477.375 350.75 477.3125 348.4375 478.5625 346.125 C 479.8125 343.75 480.4375 341.5625 480.8125 341.75 Z M 480.8125 341.75 " transform="matrix(0.0625,0,0,0.0625,0,0)"/>
<path style="fill-rule:nonzero;fill:rgb(100%,100%,100%);fill-opacity:1;stroke-width:0.4067;stroke-linecap:butt;stroke-linejoin:miter;stroke:rgb(100%,100%,100%);stroke-opacity:1;stroke-miterlimit:10;" d="M 485.8125 331.625 C 486.1875 331.8125 486.3125 334.25 485.125 336.6875 C 483.9375 339.125 483.5 341.0625 483.125 340.875 C 482.6875 340.6875 482.5625 338.4375 483.75 336 C 484.9375 333.625 485.4375 331.4375 485.8125 331.625 Z M 485.8125 331.625 " transform="matrix(0.0625,0,0,0.0625,0,0)"/>
<path style="fill-rule:nonzero;fill:rgb(100%,100%,100%);fill-opacity:1;stroke-width:0.4067;stroke-linecap:butt;stroke-linejoin:miter;stroke:rgb(100%,100%,100%);stroke-opacity:1;stroke-miterlimit:10;" d="M 490.4375 321.25 C 490.875 321.4375 491.0625 323.9375 490 326.375 C 488.875 328.875 488.5 330.8125 488.0625 330.625 C 487.6875 330.4375 487.4375 328.1875 488.5625 325.75 C 489.625 323.3125 490.0625 321.125 490.4375 321.25 Z M 490.4375 321.25 " transform="matrix(0.0625,0,0,0.0625,0,0)"/>
<path style="fill-rule:nonzero;fill:rgb(100%,100%,100%);fill-opacity:1;stroke-width:0.4067;stroke-linecap:butt;stroke-linejoin:miter;stroke:rgb(100%,100%,100%);stroke-opacity:1;stroke-miterlimit:10;" d="M 494.75 310.8125 C 495.125 310.9375 495.4375 313.375 494.4375 315.9375 C 493.4375 318.4375 493.0625 320.375 492.6875 320.1875 C 492.3125 320.0625 491.9375 317.8125 493 315.3125 C 494 312.8125 494.3125 310.625 494.75 310.8125 Z M 494.75 310.8125 " transform="matrix(0.0625,0,0,0.0625,0,0)"/>
<path style="fill-rule:nonzero;fill:rgb(100%,100%,100%);fill-opacity:1;stroke-width:0.4067;stroke-linecap:butt;stroke-linejoin:miter;stroke:rgb(100%,100%,100%);stroke-opacity:1;stroke-miterlimit:10;" d="M 498.5625 300.125 C 499 300.25 499.375 302.75 498.5 305.25 C 497.5625 307.8125 497.3125 309.8125 496.875 309.625 C 496.5 309.5 496.0625 307.25 497 304.75 C 497.9375 302.1875 498.1875 300 498.5625 300.125 Z M 498.5625 300.125 " transform="matrix(0.0625,0,0,0.0625,0,0)"/>
<path style="fill-rule:nonzero;fill:rgb(100%,100%,100%);fill-opacity:1;stroke-width:0.4067;stroke-linecap:butt;stroke-linejoin:miter;stroke:rgb(100%,100%,100%);stroke-opacity:1;stroke-miterlimit:10;" d="M 502 289.375 C 502.4375 289.5 502.9375 291.875 502.125 294.5 C 501.3125 297.0625 501.125 299.0625 500.75 298.9375 C 500.3125 298.75 499.8125 296.5625 500.625 294 C 501.4375 291.4375 501.625 289.1875 502 289.375 Z M 502 289.375 " transform="matrix(0.0625,0,0,0.0625,0,0)"/>
<path style="fill-rule:nonzero;fill:rgb(100%,100%,100%);fill-opacity:1;stroke-width:0.4067;stroke-linecap:butt;stroke-linejoin:miter;stroke:rgb(100%,100%,100%);stroke-opacity:1;stroke-miterlimit:10;" d="M 505 278.4375 C 505.375 278.5625 506 280.9375 505.3125 283.5625 C 504.625 286.1875 504.5 288.125 504.125 288.0625 C 503.6875 287.9375 503.125 285.75 503.8125 283.125 C 504.5 280.5625 504.5625 278.3125 505 278.4375 Z M 505 278.4375 " transform="matrix(0.0625,0,0,0.0625,0,0)"/>
<path style="fill-rule:nonzero;fill:rgb(100%,100%,100%);fill-opacity:1;stroke-width:0.4067;stroke-linecap:butt;stroke-linejoin:miter;stroke:rgb(100%,100%,100%);stroke-opacity:1;stroke-miterlimit:10;" d="M 507.5 267.375 C 507.9375 267.5 508.625 269.875 508.0625 272.5 C 507.4375 275.125 507.4375 277.125 507 277 C 506.625 276.9375 505.9375 274.75 506.5 272.125 C 507.125 269.5625 507.0625 267.3125 507.5 267.375 Z M 507.5 267.375 " transform="matrix(0.0625,0,0,0.0625,0,0)"/>
<path style="fill-rule:nonzero;fill:rgb(100%,100%,100%);fill-opacity:1;stroke-width:0.4067;stroke-linecap:butt;stroke-linejoin:miter;stroke:rgb(100%,100%,100%);stroke-opacity:1;stroke-miterlimit:10;" d="M 509.625 256.25 C 510.0625 256.3125 510.8125 258.6875 510.375 261.375 C 509.8125 264 509.9375 266 509.5 265.9375 C 509.0625 265.8125 508.3125 263.6875 508.8125 261.0625 C 509.3125 258.4375 509.1875 256.1875 509.625 256.25 Z M 509.625 256.25 " transform="matrix(0.0625,0,0,0.0625,0,0)"/>
<path style="fill-rule:nonzero;fill:rgb(100%,100%,100%);fill-opacity:1;stroke-width:0.4067;stroke-linecap:butt;stroke-linejoin:miter;stroke:rgb(100%,100%,100%);stroke-opacity:1;stroke-miterlimit:10;" d="M 511.125 246.1875 C 511.5625 246.25 512.4375 248.5625 512.0625 251.1875 C 511.625 253.875 511.8125 255.875 511.375 255.8125 C 510.9375 255.75 510.125 253.625 510.5 251 C 510.875 248.3125 510.6875 246.125 511.125 246.1875 Z M 511.125 246.1875 " transform="matrix(0.0625,0,0,0.0625,0,0)"/>
<path style="fill:none;stroke-width:1.6211;stroke-linecap:round;stroke-linejoin:round;stroke:rgb(100%,100%,100%);stroke-opacity:1;stroke-miterlimit:4;" d="M 522.375 253.75 C 522.25 254.5625 522.125 255.3125 522 256.125 " transform="matrix(0.0625,0,0,0.0625,0,0)"/>
<path style="fill:none;stroke-width:1.6211;stroke-linecap:round;stroke-linejoin:round;stroke:rgb(100%,100%,100%);stroke-opacity:1;stroke-dasharray:4.8298,6.4397;stroke-miterlimit:4;" d="M 521 262.5 C 511.875 316.5625 484.1875 372.25 442.125 420.5 C 397.125 472.125 341.125 508.75 285.6875 523.3125 " transform="matrix(0.0625,0,0,0.0625,0,0)"/>
<path style="fill:none;stroke-width:1.6211;stroke-linecap:round;stroke-linejoin:round;stroke:rgb(100%,100%,100%);stroke-opacity:1;stroke-miterlimit:4;" d="M 282.5625 524.125 C 281.8125 524.3125 281 524.5 280.25 524.6875 C 280.25 524.75 280.3125 524.8125 280.375 524.875 " transform="matrix(0.0625,0,0,0.0625,0,0)"/>
</g>
</svg>
